<?xml version="1.0" encoding="UTF-8" standalone="no"?>
<!-- Created with Inkscape (http://www.inkscape.org/) -->

<svg
   xmlns:dc="http://purl.org/dc/elements/1.1/"
   xmlns:cc="http://creativecommons.org/ns#"
   xmlns:rdf="http://www.w3.org/1999/02/22-rdf-syntax-ns#"
   xmlns:svg="http://www.w3.org/2000/svg"
   xmlns="http://www.w3.org/2000/svg"
   xmlns:sodipodi="http://sodipodi.sourceforge.net/DTD/sodipodi-0.dtd"
   xmlns:inkscape="http://www.inkscape.org/namespaces/inkscape"
   width="447.43994mm"
   height="128.59047mm"
   viewBox="0 0 447.43994 128.59047"
   version="1.1"
   id="svg8"
   inkscape:version="0.92.4 (0.92.4+201912050525+36965ca)"
   sodipodi:docname="logo.svg">
  <defs
     id="defs2" />
  <sodipodi:namedview
     id="base"
     pagecolor="#ffffff"
     bordercolor="#666666"
     borderopacity="1.0"
     inkscape:pageopacity="0.0"
     inkscape:pageshadow="2"
     inkscape:zoom="0.175"
     inkscape:cx="89.207057"
     inkscape:cy="835.76165"
     inkscape:document-units="mm"
     inkscape:current-layer="flowRoot819"
     showgrid="false"
     inkscape:window-width="1366"
     inkscape:window-height="713"
     inkscape:window-x="0"
     inkscape:window-y="27"
     inkscape:window-maximized="1"
     fit-margin-top="0"
     fit-margin-left="0"
     fit-margin-right="0"
     fit-margin-bottom="0" />
  <metadata
     id="metadata5">
    <rdf:RDF>
      <cc:Work
         rdf:about="">
        <dc:format>image/svg+xml</dc:format>
        <dc:type
           rdf:resource="http://purl.org/dc/dcmitype/StillImage" />
        <dc:title />
      </cc:Work>
    </rdf:RDF>
  </metadata>
  <g
     inkscape:label="Layer 1"
     inkscape:groupmode="layer"
     id="layer1"
     transform="translate(274.49355,-329.93965)">
    <g
       id="g833"
       transform="matrix(0.58877391,0,0,0.58877391,84.3128,95.261878)">
      <g
         aria-label="Black Silicon"
         transform="matrix(2.000502,0,0,2.000502,-129.87509,-593.84944)"
         style="font-style:normal;font-weight:normal;font-size:40px;line-height:1.25;font-family:sans-serif;letter-spacing:0px;word-spacing:0px;fill:#ffffff;fill-opacity:1;stroke:none"
         id="flowRoot819">
        <g
           aria-label="Black"
           transform="matrix(1.3826116,0,0,1.3826116,-642.97666,-276.40107)"
           style="font-style:normal;font-weight:normal;font-size:40px;line-height:1.25;font-family:sans-serif;letter-spacing:0px;word-spacing:0px;fill:#ffffff;fill-opacity:1;stroke:none"
           id="flowRoot835">
          <path
             d="m 448.97227,577.04425 c 2.12,-1.32 3.52,-3.56 3.52,-6.04 0,-4.16 -3.64,-7.16 -8.6,-7.16 h -12.64 v 28 h 12.92 c 5.16,0 9.08,-3.44 9.08,-8 0,-3.04 -1.64,-5.56 -4.28,-6.8 z m -3.8,-4.76 c 0,1.44 -1,2.44 -2.6,2.44 h -3.92 v -4.88 h 3.92 c 1.6,0 2.6,0.96 2.6,2.44 z m -2.32,13.2 h -4.2 v -5.08 h 4.2 c 1.68,0 2.76,1.04 2.76,2.52 0,1.52 -1.08,2.56 -2.76,2.56 z"
             style="font-style:normal;font-variant:normal;font-weight:normal;font-stretch:normal;font-family:Mont;-inkscape-font-specification:Mont;fill:#ffffff;fill-opacity:1"
             id="path928" />
          <path
             d="m 456.90789,591.80425 h 7.44 v -29.4 h -7.44 z"
             style="font-style:normal;font-variant:normal;font-weight:normal;font-stretch:normal;font-family:Mont;-inkscape-font-specification:Mont;fill:#ffffff;fill-opacity:1"
             id="path930" />
          <path
             d="m 486.45727,570.20425 -0.76,1.68 c -1.76,-1.48 -4.04,-2.32 -6.6,-2.32 -6.6,0 -11.32,4.76 -11.32,11.44 0,6.72 4.72,11.52 11.32,11.52 2.52,0 4.76,-0.8 6.52,-2.24 l 0.64,1.52 h 5.76 v -21.6 z m -6.36,15.76 c -2.8,0 -4.84,-2.12 -4.84,-4.96 0,-2.8 2.04,-4.88 4.84,-4.88 2.8,0 4.84,2.08 4.84,4.88 0,2.84 -2.04,4.96 -4.84,4.96 z"
             style="font-style:normal;font-variant:normal;font-weight:normal;font-stretch:normal;font-family:Mont;-inkscape-font-specification:Mont;fill:#ffffff;fill-opacity:1"
             id="path932" />
          <path
             d="m 507.35352,592.52425 c 6.08,0 10.72,-3.96 11.56,-9.8 h -7.32 c -0.6,1.92 -2.24,3.16 -4.24,3.16 -2.6,0 -4.48,-2.04 -4.48,-4.88 0,-2.8 1.88,-4.8 4.48,-4.8 1.96,0 3.6,1.16 4.2,2.92 h 7.28 c -0.84,-5.76 -5.36,-9.56 -11.44,-9.56 -7,0 -11.96,4.76 -11.96,11.44 0,6.68 5,11.52 11.92,11.52 z"
             style="font-style:normal;font-variant:normal;font-weight:normal;font-stretch:normal;font-family:Mont;-inkscape-font-specification:Mont;fill:#ffffff;fill-opacity:1"
             id="path934" />
          <path
             d="m 544.10227,591.80425 -7.44,-11.28 6.76,-10.32 h -8.36 l -5.16,8.48 v -16.28 h -7.44 v 29.4 h 7.44 v -9.12 l 5.4,9.12 z"
             style="font-style:normal;font-variant:normal;font-weight:normal;font-stretch:normal;font-family:Mont;-inkscape-font-specification:Mont;fill:#ffffff;fill-opacity:1"
             id="path936" />
        </g>
        <g
           aria-label="Silicon"
           transform="matrix(1.3826116,0,0,1.3826116,-641.84923,-220.09649)"
           style="font-style:normal;font-weight:normal;font-size:40px;line-height:1.25;font-family:sans-serif;letter-spacing:0px;word-spacing:0px;fill:#ffffff;fill-opacity:1;stroke:none"
           id="flowRoot835-1">
          <path
             d="m 441.17227,592.52425 c 6.52,0 11.2,-3.2 11.2,-9.32 0,-6.36 -5.36,-7.76 -9.52,-8.8 -2.6,-0.68 -4.72,-1.2 -4.72,-2.8 0,-1.32 1.32,-1.92 2.68,-1.92 1.6,0 2.92,0.84 2.92,2.64 h 7.76 c 0,-5.72 -3.88,-9.16 -10.6,-9.16 -6.6,0 -10.64,3.16 -10.64,8.68 0,6.36 5.16,7.6 9.2,8.6 2.68,0.64 4.88,1.16 4.88,2.92 0,1.52 -1.56,2.4 -3.16,2.4 -1.76,0 -3.32,-1 -3.32,-3 h -7.96 c 0,6.12 4.44,9.76 11.28,9.76 z"
             style="font-style:normal;font-variant:normal;font-weight:normal;font-stretch:normal;font-family:Mont;-inkscape-font-specification:Mont;fill:#ffffff;fill-opacity:1"
             id="path939" />
          <path
             d="m 456.08852,567.52425 h 7.36 v -6.32 h -7.36 z m -0.04,24.28 h 7.44 v -21.6 h -7.44 z"
             style="font-style:normal;font-variant:normal;font-weight:normal;font-stretch:normal;font-family:Mont;-inkscape-font-specification:Mont;fill:#ffffff;fill-opacity:1"
             id="path941" />
          <path
             d="m 468.15789,591.80425 h 7.44 v -29.4 h -7.44 z"
             style="font-style:normal;font-variant:normal;font-weight:normal;font-stretch:normal;font-family:Mont;-inkscape-font-specification:Mont;fill:#ffffff;fill-opacity:1"
             id="path943" />
          <path
             d="m 480.30727,567.52425 h 7.36 v -6.32 h -7.36 z m -0.04,24.28 h 7.44 v -21.6 h -7.44 z"
             style="font-style:normal;font-variant:normal;font-weight:normal;font-stretch:normal;font-family:Mont;-inkscape-font-specification:Mont;fill:#ffffff;fill-opacity:1"
             id="path945" />
          <path
             d="m 503.05664,592.52425 c 6.08,0 10.72,-3.96 11.56,-9.8 h -7.32 c -0.6,1.92 -2.24,3.16 -4.24,3.16 -2.6,0 -4.48,-2.04 -4.48,-4.88 0,-2.8 1.88,-4.8 4.48,-4.8 1.96,0 3.6,1.16 4.2,2.92 h 7.28 c -0.84,-5.76 -5.36,-9.56 -11.44,-9.56 -7,0 -11.96,4.76 -11.96,11.44 0,6.68 5,11.52 11.92,11.52 z"
             style="font-style:normal;font-variant:normal;font-weight:normal;font-stretch:normal;font-family:Mont;-inkscape-font-specification:Mont;fill:#ffffff;fill-opacity:1"
             id="path947" />
          <path
             d="m 528.68539,592.52425 c 7.04,0 12.12,-4.84 12.12,-11.52 0,-6.68 -5.08,-11.48 -12.12,-11.48 -7.04,0 -12.08,4.8 -12.08,11.48 0,6.68 5.04,11.52 12.08,11.52 z m 0,-6.68 c -2.68,0 -4.64,-1.96 -4.64,-4.8 0,-2.88 1.96,-4.84 4.64,-4.84 2.72,0 4.68,2 4.68,4.84 0,2.84 -1.96,4.8 -4.68,4.8 z"
             style="font-style:normal;font-variant:normal;font-weight:normal;font-stretch:normal;font-family:Mont;-inkscape-font-specification:Mont;fill:#ffffff;fill-opacity:1"
             id="path949" />
          <path
             d="m 557.29164,569.60425 c -2.8,0 -5.2,1.04 -6.8,2.84 l -1,-2.24 h -5.24 v 21.6 h 7.44 v -11.52 c 0,-2.76 1.32,-4.36 3.64,-4.36 1.88,0 2.84,1.24 2.84,3.76 v 12.12 h 7.44 v -13.16 c 0,-5.48 -3.32,-9.04 -8.32,-9.04 z"
             style="font-style:normal;font-variant:normal;font-weight:normal;font-stretch:normal;font-family:Mont;-inkscape-font-specification:Mont;fill:#ffffff;fill-opacity:1"
             id="path951" />
        </g>
        <path
           style="fill:#ffffff;stroke:#ffffff;stroke-width:5.65864706;stroke-linecap:butt;stroke-linejoin:miter;stroke-miterlimit:4;stroke-dasharray:none;stroke-opacity:1;fill-opacity:1"
           d="M -97.226728,500.01139 -98.51035,602.7011"
           id="path868"
           inkscape:connector-curvature="0" />
      </g>
      <path
         style="fill:#f26522;fill-opacity:1;stroke-width:1.42747593"
         d="m -435.91385,559.00735 57.95415,-57.98371 -15.88061,-15.88058 -15.88057,-15.88057 -52.50193,52.48754 -52.50192,52.48754 -4.911,-5.06685 -4.91101,-5.06688 52.01762,-52.03227 52.01762,-52.03227 -4.87669,-5.03145 c -2.6822,-2.76732 -5.27871,-5.03148 -5.77002,-5.03148 -0.61433,0 -109.93929,108.86506 -115.19539,114.71078 -0.17036,0.1892 6.57765,7.21 14.99532,15.60156 l 15.30483,15.25736 52.09601,-52.07672 c 28.65282,-28.64221 52.7928,-52.08109 53.64441,-52.08646 1.56866,-0.0106 9.15769,7.78992 9.15769,9.41199 0,0.48488 -23.44087,24.39696 -52.0908,53.13798 l -52.09081,52.25644 5.27381,5.40089 c 2.90061,2.97048 5.48112,5.40088 5.73448,5.40088 0.25342,0 26.54003,-26.09269 58.41481,-57.98372 z m -63.38703,-60.13323 c 31.21181,-31.20452 56.74876,-57.37037 56.74876,-58.14635 0,-1.82783 -30.20499,-32.14817 -32.0259,-32.14817 -0.76112,0 -3.35153,1.90714 -5.75648,4.23808 l -4.37262,4.23812 -9.51057,-9.23428 c -5.23078,-5.07887 -10.04183,-9.23427 -10.69116,-9.23427 -0.64932,0 -24.42837,23.2857 -52.84227,51.746 l -51.66167,51.74601 25.97442,26.65376 c 14.28594,14.65956 26.29264,26.70391 26.68157,26.76515 0.38891,0.0613 26.24408,-25.41953 57.45592,-56.62405 z m -63.83414,27.19424 -5.67109,-6.43269 15.66344,-14.98413 c 8.61488,-8.24125 25.62004,-24.67226 37.78929,-36.5134 12.16922,-11.84111 26.45299,-25.72392 31.74167,-30.85069 l 9.6158,-9.32136 5.01583,4.86152 c 2.75867,2.67383 5.01582,5.54218 5.01582,6.37407 0,1.54138 -91.50683,93.67913 -92.79402,93.43383 -0.38811,-0.0738 -3.25763,-3.02915 -6.37674,-6.56715 z m -19.00087,-20.81549 -4.53362,-4.6775 40.34093,-40.32235 40.34093,-40.32227 4.68288,4.83145 4.68285,4.83151 -40.12159,40.16834 c -22.06686,22.09257 -40.28743,40.16834 -40.49016,40.16834 -0.20273,0 -2.40872,-2.10492 -4.90222,-4.67752 z"
         id="path867"
         inkscape:connector-curvature="0"
         sodipodi:nodetypes="scccccccccsscscscssccssssscccsscscsccssscssccccccccssc"
         inkscape:export-filename="/home/iyiola/Documents/stellar/images/logo.png"
         inkscape:export-xdpi="96.599998"
         inkscape:export-ydpi="96.599998" />
    </g>
  </g>
</svg>
