<?xml version="1.0" encoding="UTF-8"?>
<!DOCTYPE svg PUBLIC "-//W3C//DTD SVG 1.1//EN" "http://www.w3.org/Graphics/SVG/1.1/DTD/svg11.dtd">
<svg xmlns="http://www.w3.org/2000/svg" version="1.1" width="195px" height="30px" style="shape-rendering:geometricPrecision; text-rendering:geometricPrecision; image-rendering:optimizeQuality; fill-rule:evenodd; clip-rule:evenodd" xmlns:xlink="http://www.w3.org/1999/xlink">
<g><path style="opacity:0.882" fill="#3987c7" d="M 28.5,-0.5 C 30.1667,-0.5 31.8333,-0.5 33.5,-0.5C 33.5,1.16667 33.5,2.83333 33.5,4.5C 35.5,4.5 37.5,4.5 39.5,4.5C 39.5,6.16667 39.5,7.83333 39.5,9.5C 37.5,9.5 35.5,9.5 33.5,9.5C 33.1725,14.544 33.5059,19.544 34.5,24.5C 36.0709,25.3094 37.7376,25.6427 39.5,25.5C 39.5,26.8333 39.5,28.1667 39.5,29.5C 36.8333,29.5 34.1667,29.5 31.5,29.5C 30.5313,28.6906 29.6979,27.6906 29,26.5C 28.5002,17.5062 28.3336,8.50617 28.5,-0.5 Z"/></g>
<g><path style="opacity:0.843" fill="#367bb4" d="M 183.5,-0.5 C 185.167,-0.5 186.833,-0.5 188.5,-0.5C 189.301,1.04181 189.634,2.70848 189.5,4.5C 191.167,4.5 192.833,4.5 194.5,4.5C 194.5,6.16667 194.5,7.83333 194.5,9.5C 192.833,9.5 191.167,9.5 189.5,9.5C 189.5,14.8333 189.5,20.1667 189.5,25.5C 191.167,25.5 192.833,25.5 194.5,25.5C 194.5,26.8333 194.5,28.1667 194.5,29.5C 191.833,29.5 189.167,29.5 186.5,29.5C 185.496,28.3172 184.662,26.9839 184,25.5C 183.5,16.8397 183.334,8.17307 183.5,-0.5 Z"/></g>
<g><path style="opacity:0.866" fill="#ba3336" d="M 15.5,29.5 C 12.5,29.5 9.5,29.5 6.5,29.5C 3.83333,27.5 1.5,25.1667 -0.5,22.5C -0.5,18.8333 -0.5,15.1667 -0.5,11.5C 6.6502,2.72306 14.1502,2.38972 22,10.5C 23.2886,13.3508 23.7886,16.3508 23.5,19.5C 19.2879,19.0775 15.2879,19.7442 11.5,21.5C 8.49441,19.6429 7.82774,17.1429 9.5,14C 12.8333,14.3333 16.1667,14.6667 19.5,15C 15.4359,8.93559 10.6025,8.10225 5,12.5C 2.33935,21.1715 5.50601,25.0049 14.5,24C 16.909,21.8709 18.909,22.2043 20.5,25C 19.2385,26.9618 17.5719,28.4618 15.5,29.5 Z"/></g>
<g><path style="opacity:0.942" fill="#3786c7" d="M 48.5,29.5 C 46.5,29.5 44.5,29.5 42.5,29.5C 42.5,21.1667 42.5,12.8333 42.5,4.5C 46.8715,5.53763 51.2048,5.53763 55.5,4.5C 55.5,6.16667 55.5,7.83333 55.5,9.5C 53.0637,9.31701 50.897,9.98368 49,11.5C 48.5005,17.4908 48.3338,23.4908 48.5,29.5 Z"/></g>
<g><path style="opacity:0.909" fill="#3986c7" d="M 80.5,29.5 C 78.8333,29.5 77.1667,29.5 75.5,29.5C 75.2825,25.9405 74.2825,25.9405 72.5,29.5C 68.8333,29.5 65.1667,29.5 61.5,29.5C 55.3951,24.0189 53.8951,17.3522 57,9.5C 62.4473,3.70956 68.4473,3.04289 75,7.5C 75.4828,6.55198 75.6495,5.55198 75.5,4.5C 77.1667,4.5 78.8333,4.5 80.5,4.5C 80.5,12.8333 80.5,21.1667 80.5,29.5 Z M 64.5,9.5 C 73.5017,8.99435 76.6683,12.9944 74,21.5C 69.2298,26.7983 64.8964,26.465 61,20.5C 59.6631,15.8721 60.8298,12.2054 64.5,9.5 Z"/></g>
<g><path style="opacity:0.936" fill="#3986c5" d="M 106.5,29.5 C 104.833,29.5 103.167,29.5 101.5,29.5C 101.666,23.4908 101.499,17.4908 101,11.5C 98.5027,9.52185 95.6693,9.02185 92.5,10C 91.1068,11.1711 90.2735,12.6711 90,14.5C 89.5007,19.4889 89.3341,24.4889 89.5,29.5C 87.8333,29.5 86.1667,29.5 84.5,29.5C 84.5,21.1667 84.5,12.8333 84.5,4.5C 86.8211,4.22888 88.8211,4.89554 90.5,6.5C 95.6162,3.57961 100.45,3.91294 105,7.5C 106.429,14.7194 106.929,22.0528 106.5,29.5 Z"/></g>
<g><path style="opacity:0.941" fill="#3987c6" d="M 127.5,29.5 C 121.5,29.5 115.5,29.5 109.5,29.5C 109.372,27.3453 109.872,25.3453 111,23.5C 114.167,19 117.333,14.5 120.5,10C 116.848,9.50137 113.182,9.3347 109.5,9.5C 109.5,7.83333 109.5,6.16667 109.5,4.5C 115.5,4.5 121.5,4.5 127.5,4.5C 127.54,7.42455 126.707,10.0912 125,12.5C 122.361,16.6388 119.528,20.6388 116.5,24.5C 120.107,25.4892 123.774,25.8226 127.5,25.5C 127.5,26.8333 127.5,28.1667 127.5,29.5 Z"/></g>
<g><path style="opacity:0.936" fill="#3987c7" d="M 153.5,29.5 C 151.833,29.5 150.167,29.5 148.5,29.5C 148.283,25.9405 147.283,25.9405 145.5,29.5C 141.833,29.5 138.167,29.5 134.5,29.5C 127.663,24.144 126.163,17.4773 130,9.5C 135.279,3.81683 141.113,3.15017 147.5,7.5C 148.386,6.67504 148.719,5.67504 148.5,4.5C 150.144,4.28649 151.644,4.61983 153,5.5C 153.5,13.4931 153.666,21.4931 153.5,29.5 Z M 137.5,9.5 C 145.118,8.61959 148.618,11.9529 148,19.5C 144.258,26.6484 139.592,27.315 134,21.5C 132.593,16.556 133.759,12.556 137.5,9.5 Z"/></g>
<g><path style="opacity:0.861" fill="#3a87c7" d="M 174.5,29.5 C 170.5,29.5 166.5,29.5 162.5,29.5C 156.744,24.9582 154.911,18.9582 157,11.5C 160.449,5.45619 165.615,3.28953 172.5,5C 176.877,6.20549 179.21,9.03882 179.5,13.5C 176.039,14.1105 173.372,12.9439 171.5,10C 162.879,9.01456 159.712,12.8479 162,21.5C 163.259,24.2168 165.426,25.5501 168.5,25.5C 171.4,24.5911 174.067,23.2578 176.5,21.5C 177.5,21.8333 178.5,22.1667 179.5,22.5C 178.534,25.4686 176.867,27.802 174.5,29.5 Z"/></g>
</svg>
