<?xml version="1.0" encoding="UTF-8"?>
<!DOCTYPE svg PUBLIC "-//W3C//DTD SVG 1.1//EN" "http://www.w3.org/Graphics/SVG/1.1/DTD/svg11.dtd">
<svg xmlns="http://www.w3.org/2000/svg" version="1.1" width="1802px" height="800px" style="shape-rendering:geometricPrecision; text-rendering:geometricPrecision; image-rendering:optimizeQuality; fill-rule:evenodd; clip-rule:evenodd" xmlns:xlink="http://www.w3.org/1999/xlink">
<g><path style="opacity:0.916" fill="#ad2720" d="M 881.5,188.5 C 881.334,192.514 881.501,196.514 882,200.5C 883,201.833 884,201.833 885,200.5C 885.49,199.207 885.657,197.873 885.5,196.5C 886.401,197.29 887.068,198.29 887.5,199.5C 887.554,201.632 888.554,202.965 890.5,203.5C 890.5,203.833 890.5,204.167 890.5,204.5C 889.167,204.5 887.833,204.5 886.5,204.5C 886.406,207.541 887.906,209.207 891,209.5C 891.333,211.167 891.667,212.833 892,214.5C 893.756,215.985 894.923,215.652 895.5,213.5C 895.833,213.5 896.167,213.5 896.5,213.5C 896.088,215.973 897.088,217.306 899.5,217.5C 901.655,246.997 901.988,276.663 900.5,306.5C 895.588,306.937 890.922,306.104 886.5,304C 879.516,295.351 871.516,287.684 862.5,281C 858.14,276.64 853.806,272.306 849.5,268C 847.51,266.249 845.177,265.249 842.5,265C 841.213,263.59 840.046,262.09 839,260.5C 838.333,256.167 838.333,251.833 839,247.5C 842.233,245.591 845.4,243.591 848.5,241.5C 857.236,232.103 865.57,222.436 873.5,212.5C 856.718,211.659 840.051,209.825 823.5,207C 808.592,206.825 793.759,206.325 779,205.5C 767.48,206.016 755.98,204.849 744.5,202C 728.212,201.652 712.212,201.152 696.5,200.5C 697.151,229.978 697.484,259.478 697.5,289C 697.639,319.6 697.139,350.1 696,380.5C 714.27,366.29 732.77,352.456 751.5,339C 752.95,335.389 755.283,332.555 758.5,330.5C 762.442,329.4 766.442,329.233 770.5,330C 771,330.5 771.5,331 772,331.5C 775.337,336.871 778.671,342.204 782,347.5C 786.967,351.466 791.634,355.799 796,360.5C 804.707,369.704 813.207,379.037 821.5,388.5C 821.5,389.167 821.5,389.833 821.5,390.5C 822.578,393.908 824.911,395.908 828.5,396.5C 829.167,396.5 829.833,396.5 830.5,396.5C 830.5,402.167 830.5,407.833 830.5,413.5C 829.833,413.833 829.167,414.167 828.5,414.5C 828.313,408.788 828.646,403.121 829.5,397.5C 827.052,397.01 825.385,397.843 824.5,400C 825.425,405.116 825.758,410.283 825.5,415.5C 820.714,418.445 816.048,421.612 811.5,425C 808.56,426.152 805.56,427.152 802.5,428C 797.279,432.079 791.279,434.412 784.5,435C 684.833,435.667 585.167,435.667 485.5,435C 432.881,416.386 395.714,381.219 374,329.5C 372,291.5 372,253.5 374,215.5C 377.648,207.545 381.481,199.711 385.5,192C 389.78,185.95 393.947,179.783 398,173.5C 422.115,142.359 452.948,121.193 490.5,110C 587.167,109.333 683.833,109.333 780.5,110C 788.132,111.65 795.132,114.65 801.5,119C 803.833,119.333 806.167,119.667 808.5,120C 821.284,127.567 833.618,135.9 845.5,145C 851.422,151.941 857.922,158.441 865,164.5C 869.667,170.5 874.333,176.5 879,182.5C 880.122,184.407 880.955,186.407 881.5,188.5 Z"/></g>
<g><path style="opacity:0.918" fill="#83817f" d="M 1246.5,490.5 C 1139.83,491.833 1033.17,491.833 926.5,490.5C 950.169,490.667 973.836,490.5 997.5,490C 998.833,489 998.833,488 997.5,487C 971.835,486.5 946.169,486.333 920.5,486.5C 920.586,485.504 920.252,484.671 919.5,484C 904.625,477.204 890.958,468.537 878.5,458C 869.637,448.803 860.47,439.969 851,431.5C 846.674,426.187 842.841,420.521 839.5,414.5C 839.793,408.107 839.46,401.773 838.5,395.5C 837.726,394.289 836.893,394.289 836,395.5C 835.501,399.486 835.334,403.486 835.5,407.5C 835.167,407.5 834.833,407.5 834.5,407.5C 834.666,403.154 834.499,398.821 834,394.5C 832.644,393.62 831.144,393.286 829.5,393.5C 828.833,392.5 828.167,391.5 827.5,390.5C 829.55,390.961 831.55,391.628 833.5,392.5C 835.252,389.167 834.252,387.501 830.5,387.5C 830.662,385.473 830.495,383.473 830,381.5C 829.29,380.027 828.124,379.36 826.5,379.5C 825.908,382.127 825.575,384.794 825.5,387.5C 824.167,387.5 823.5,386.833 823.5,385.5C 824.084,382.715 823.084,381.048 820.5,380.5C 820.5,379.833 820.5,379.167 820.5,378.5C 822.167,378.5 823.833,378.5 825.5,378.5C 825.663,376.143 825.497,373.81 825,371.5C 823.989,370.663 822.822,370.33 821.5,370.5C 821.768,372.099 821.434,373.432 820.5,374.5C 819.176,348.84 819.176,323.173 820.5,297.5C 826.586,296.966 832.252,298.133 837.5,301C 848.614,313.784 860.614,325.45 873.5,336C 877.003,338.832 880.836,340.999 885,342.5C 887.188,348.395 886.688,354.062 883.5,359.5C 878.684,361.746 874.35,364.746 870.5,368.5C 862.806,376.027 855.639,384.027 849,392.5C 848.405,393.899 848.572,395.232 849.5,396.5C 851.817,398.316 853.984,400.316 856,402.5C 856.75,401.874 857.584,401.374 858.5,401C 900.336,400.68 942.169,400.18 984,399.5C 996.503,399.694 1008.84,400.027 1021,400.5C 1022.73,400.546 1024.23,400.046 1025.5,399C 1024.01,396.711 1023.01,394.211 1022.5,391.5C 1023,334.083 1024.17,276.749 1026,219.5C 1025.67,219.167 1025.33,218.833 1025,218.5C 1013.44,228.36 1001.61,237.86 989.5,247C 980.895,255.614 971.728,263.447 962,270.5C 959.224,269.195 956.39,268.029 953.5,267C 952.751,265.266 952.251,263.433 952,261.5C 934.272,244.272 916.772,226.939 899.5,209.5C 898.925,207.589 897.925,205.922 896.5,204.5C 897.833,204.5 899.167,204.5 900.5,204.5C 900.838,200.849 899.172,199.183 895.5,199.5C 895.5,196.167 895.5,192.833 895.5,189.5C 899.4,189.66 902.067,187.993 903.5,184.5C 909.036,181.138 914.702,177.972 920.5,175C 925.011,173.075 929.677,171.742 934.5,171C 1035.83,170.333 1137.17,170.333 1238.5,171C 1244,172.078 1249.33,173.745 1254.5,176C 1258.02,177.256 1261.02,179.256 1263.5,182C 1268.01,182.023 1271.01,184.023 1272.5,188C 1305.03,207.201 1329.2,234.035 1345,268.5C 1348.42,270.251 1350.75,272.918 1352,276.5C 1352.67,313.167 1352.67,349.833 1352,386.5C 1350.49,391.009 1347.82,394.676 1344,397.5C 1341.84,405.492 1338.34,412.826 1333.5,419.5C 1327.08,429.088 1319.75,437.921 1311.5,446C 1299.41,456.762 1286.74,466.762 1273.5,476C 1267.81,478.37 1262.15,480.704 1256.5,483C 1253.53,484.506 1253.19,486.172 1255.5,488C 1252.65,489.43 1249.65,490.263 1246.5,490.5 Z"/></g>
<g><path style="opacity:0.104" fill="#af221b" d="M 881.5,188.5 C 884.407,190.315 885.741,192.981 885.5,196.5C 885.657,197.873 885.49,199.207 885,200.5C 884,201.833 883,201.833 882,200.5C 881.501,196.514 881.334,192.514 881.5,188.5 Z"/></g>
<g><path style="opacity:0.114" fill="#808785" d="M 895.5,189.5 C 895.5,192.833 895.5,196.167 895.5,199.5C 899.172,199.183 900.838,200.849 900.5,204.5C 899.167,204.5 897.833,204.5 896.5,204.5C 895.363,203.211 894.03,202.211 892.5,201.5C 892.335,197.818 892.501,194.152 893,190.5C 893.671,189.748 894.504,189.414 895.5,189.5 Z"/></g>
<g><path style="opacity:0.016" fill="#a43c36" d="M 887.5,199.5 C 888.974,200.436 889.974,201.77 890.5,203.5C 888.554,202.965 887.554,201.632 887.5,199.5 Z"/></g>
<g><path style="opacity:0.012" fill="#906763" d="M 892.5,201.5 C 894.03,202.211 895.363,203.211 896.5,204.5C 897.925,205.922 898.925,207.589 899.5,209.5C 896.246,207.673 893.913,205.007 892.5,201.5 Z"/></g>
<g><path style="opacity:0.066" fill="#af221b" d="M 890.5,204.5 C 892.019,207.481 893.685,210.481 895.5,213.5C 894.923,215.652 893.756,215.985 892,214.5C 891.667,212.833 891.333,211.167 891,209.5C 887.906,209.207 886.406,207.541 886.5,204.5C 887.833,204.5 889.167,204.5 890.5,204.5 Z"/></g>
<g><path style="opacity:0.008" fill="#a53832" d="M 896.5,213.5 C 897.974,214.436 898.974,215.77 899.5,217.5C 897.088,217.306 896.088,215.973 896.5,213.5 Z"/></g>
<g><path style="opacity:0.077" fill="#b02119" d="M 896.5,218.5 C 897.5,218.5 898.5,218.5 899.5,218.5C 899.662,220.527 899.495,222.527 899,224.5C 898.586,224.957 898.086,225.291 897.5,225.5C 896.526,223.257 896.192,220.924 896.5,218.5 Z"/></g>
<g><path style="opacity:0.237" fill="#818785" d="M 820.5,378.5 C 820.5,377.167 820.5,375.833 820.5,374.5C 821.434,373.432 821.768,372.099 821.5,370.5C 822.822,370.33 823.989,370.663 825,371.5C 825.497,373.81 825.663,376.143 825.5,378.5C 823.833,378.5 822.167,378.5 820.5,378.5 Z"/></g>
<g><path style="opacity:0.143" fill="#808684" d="M 827.5,390.5 C 826.833,389.5 826.167,388.5 825.5,387.5C 825.575,384.794 825.908,382.127 826.5,379.5C 828.124,379.36 829.29,380.027 830,381.5C 830.495,383.473 830.662,385.473 830.5,387.5C 834.252,387.501 835.252,389.167 833.5,392.5C 831.55,391.628 829.55,390.961 827.5,390.5 Z"/></g>
<g><path style="opacity:0.008" fill="#985550" d="M 820.5,380.5 C 823.084,381.048 824.084,382.715 823.5,385.5C 822.263,384.035 821.263,382.368 820.5,380.5 Z"/></g>
<g><path style="opacity:0.027" fill="#a23f39" d="M 821.5,388.5 C 823.833,390.167 825.833,392.167 827.5,394.5C 825.246,393.585 823.246,392.252 821.5,390.5C 821.5,389.833 821.5,389.167 821.5,388.5 Z"/></g>
<g><path style="opacity:0.11" fill="#a8302a" d="M 821.5,390.5 C 823.246,392.252 825.246,393.585 827.5,394.5C 827.833,395.167 828.167,395.833 828.5,396.5C 824.911,395.908 822.578,393.908 821.5,390.5 Z"/></g>
<g><path style="opacity:0.207" fill="#808785" d="M 839.5,414.5 C 837.929,412.365 836.596,410.032 835.5,407.5C 835.334,403.486 835.501,399.486 836,395.5C 836.893,394.289 837.726,394.289 838.5,395.5C 839.46,401.773 839.793,408.107 839.5,414.5 Z"/></g>
<g><path style="opacity:0.02" fill="#a1413b" d="M 827.5,394.5 C 828.167,394.5 828.833,394.5 829.5,394.5C 829.833,395.167 830.167,395.833 830.5,396.5C 829.833,396.5 829.167,396.5 828.5,396.5C 828.167,395.833 827.833,395.167 827.5,394.5 Z"/></g>
<g><path style="opacity:0.334" fill="#af211a" d="M 828.5,414.5 C 827.609,415.11 826.609,415.443 825.5,415.5C 825.758,410.283 825.425,405.116 824.5,400C 825.385,397.843 827.052,397.01 829.5,397.5C 828.646,403.121 828.313,408.788 828.5,414.5 Z"/></g>
<g><path style="opacity:0.03" fill="#91615d" d="M 829.5,394.5 C 831.017,394.511 832.184,395.177 833,396.5C 833.499,400.821 833.666,405.154 833.5,409.5C 833.672,410.492 833.338,411.158 832.5,411.5C 832.666,406.821 832.499,402.155 832,397.5C 831.617,396.944 831.117,396.611 830.5,396.5C 830.167,395.833 829.833,395.167 829.5,394.5 Z"/></g>
<g><path style="opacity:0.028" fill="#897471" d="M 829.5,394.5 C 829.5,394.167 829.5,393.833 829.5,393.5C 831.144,393.286 832.644,393.62 834,394.5C 834.499,398.821 834.666,403.154 834.5,407.5C 834.672,408.492 834.338,409.158 833.5,409.5C 833.666,405.154 833.499,400.821 833,396.5C 832.184,395.177 831.017,394.511 829.5,394.5 Z"/></g>
<g><path style="opacity:0.053" fill="#9e4843" d="M 830.5,396.5 C 831.117,396.611 831.617,396.944 832,397.5C 832.499,402.155 832.666,406.821 832.5,411.5C 832.167,412.5 831.5,413.167 830.5,413.5C 830.5,407.833 830.5,402.167 830.5,396.5 Z"/></g>
<g><path style="opacity:0.494" fill="#888785" d="M 920.5,486.5 C 946.169,486.333 971.835,486.5 997.5,487C 998.833,488 998.833,489 997.5,490C 973.836,490.5 950.169,490.667 926.5,490.5C 923.593,490.425 920.927,489.591 918.5,488C 919.044,487.283 919.711,486.783 920.5,486.5 Z"/></g>
<g><path style="opacity:0.662" fill="#888785" d="M 1056.5,486.5 C 1067.17,486.333 1077.84,486.5 1088.5,487C 1091.17,488 1091.17,489 1088.5,490C 1077.5,490.667 1066.5,490.667 1055.5,490C 1054.69,489.692 1054.03,489.192 1053.5,488.5C 1054.6,487.824 1055.6,487.158 1056.5,486.5 Z"/></g>
<g><path style="opacity:0.658" fill="#888785" d="M 1150.5,486.5 C 1161.17,486.333 1171.84,486.5 1182.5,487C 1183.91,487.368 1184.91,488.201 1185.5,489.5C 1173.51,490.666 1161.51,490.833 1149.5,490C 1148.69,489.692 1148.03,489.192 1147.5,488.5C 1148.6,487.824 1149.6,487.158 1150.5,486.5 Z"/></g>
<g><path style="opacity:0.497" fill="#888785" d="M 1246.5,490.5 C 1233.82,490.832 1221.15,490.499 1208.5,489.5C 1209.09,488.201 1210.09,487.368 1211.5,487C 1222.17,486.333 1232.83,486.333 1243.5,487C 1245.43,487.422 1246.43,488.589 1246.5,490.5 Z"/></g>
<g><path style="opacity:0.763" fill="#2c2d2c" d="M 775.5,495.5 C 790.837,495.333 806.17,495.5 821.5,496C 823.791,499.719 827.124,501.385 831.5,501C 832.167,502 832.833,503 833.5,504C 835.608,504.36 837.608,505.027 839.5,506C 842.509,509.342 845.843,512.342 849.5,515C 851.894,516.952 853.394,519.452 854,522.5C 857.737,524.677 859.737,528.01 860,532.5C 860.925,533.047 861.758,533.713 862.5,534.5C 862.784,537.94 863.951,540.94 866,543.5C 868.125,551.555 864.958,555.055 856.5,554C 855.833,555.333 854.833,556.333 853.5,557C 844.5,557.667 835.5,557.667 826.5,557C 826.056,550.585 824.056,544.751 820.5,539.5C 818.042,538.876 816.376,537.376 815.5,535C 811.201,534.683 807.535,533.017 804.5,530C 800.167,529.333 795.833,529.333 791.5,530C 787.756,533.027 783.423,534.693 778.5,535C 774.746,537.42 771.579,540.587 769,544.5C 768.667,546.833 768.333,549.167 768,551.5C 766.989,552.337 765.822,552.67 764.5,552.5C 764.976,561.59 763.976,570.423 761.5,579C 763.516,588.736 764.849,598.569 765.5,608.5C 766.167,608.833 766.833,609.167 767.5,609.5C 768.167,612.167 768.833,614.833 769.5,617.5C 772.701,620.751 776.034,623.917 779.5,627C 783.462,626.874 786.795,628.208 789.5,631C 794.167,631.667 798.833,631.667 803.5,631C 806.162,628.153 809.495,626.653 813.5,626.5C 814.952,623.878 817.119,622.212 820,621.5C 820.92,618.062 822.587,615.062 825,612.5C 825.039,606.925 827.205,602.425 831.5,599C 835.848,598.762 840.181,599.095 844.5,600C 845.5,601 846.5,602 847.5,603C 851.167,603.333 854.833,603.667 858.5,604C 860.455,604.953 862.122,606.287 863.5,608C 864.793,608.49 866.127,608.657 867.5,608.5C 867.5,611.833 867.5,615.167 867.5,618.5C 866.178,618.33 865.011,618.663 864,619.5C 863.666,627.147 860.666,633.481 855,638.5C 854.138,640.087 853.471,641.754 853,643.5C 847.815,649.645 841.648,654.145 834.5,657C 832.209,660.719 828.876,662.385 824.5,662C 823.643,662.689 822.977,663.522 822.5,664.5C 806.177,665.666 789.844,665.833 773.5,665C 770.902,662.041 767.568,660.707 763.5,661C 755.789,655.645 748.289,649.812 741,643.5C 736.228,636.427 731.561,629.427 727,622.5C 726.667,619.833 726.333,617.167 726,614.5C 724.229,612.416 722.896,610.082 722,607.5C 721.333,589.5 721.333,571.5 722,553.5C 723.011,552.663 724.178,552.33 725.5,552.5C 725.513,547.74 726.18,543.074 727.5,538.5C 728.167,538.167 728.833,537.833 729.5,537.5C 730.396,534.856 731.229,532.19 732,529.5C 735.683,526.514 738.683,522.848 741,518.5C 746.729,512.412 753.229,507.578 760.5,504C 761.167,503 761.833,502 762.5,501C 767.916,501.372 772.249,499.538 775.5,495.5 Z"/></g>
<g><path style="opacity:0.763" fill="#2c2d2c" d="M 1556.5,495.5 C 1571.84,495.333 1587.17,495.5 1602.5,496C 1604.79,499.719 1608.12,501.385 1612.5,501C 1613.17,502 1613.83,503 1614.5,504C 1616.61,504.36 1618.61,505.027 1620.5,506C 1623.83,509 1627.17,512 1630.5,515C 1632.89,516.952 1634.39,519.452 1635,522.5C 1638.74,524.677 1640.74,528.01 1641,532.5C 1641.92,533.047 1642.76,533.713 1643.5,534.5C 1643.78,537.94 1644.95,540.94 1647,543.5C 1649.14,551.695 1645.97,555.195 1637.5,554C 1636.83,555.333 1635.83,556.333 1634.5,557C 1625.5,557.667 1616.5,557.667 1607.5,557C 1607.06,550.585 1605.06,544.751 1601.5,539.5C 1599.04,538.876 1597.38,537.376 1596.5,535C 1592.2,534.683 1588.53,533.017 1585.5,530C 1581.17,529.333 1576.83,529.333 1572.5,530C 1568.76,533.027 1564.42,534.693 1559.5,535C 1555.72,537.448 1552.55,540.614 1550,544.5C 1549.67,546.833 1549.33,549.167 1549,551.5C 1547.99,552.337 1546.82,552.67 1545.5,552.5C 1545.98,561.59 1544.98,570.423 1542.5,579C 1544.52,588.736 1545.85,598.569 1546.5,608.5C 1547.17,608.833 1547.83,609.167 1548.5,609.5C 1549.17,612.167 1549.83,614.833 1550.5,617.5C 1553.7,620.751 1557.03,623.917 1560.5,627C 1564.69,626.972 1568.35,628.305 1571.5,631C 1575.83,631.667 1580.17,631.667 1584.5,631C 1585.5,630 1586.5,629 1587.5,628C 1591.97,628.39 1595.3,626.724 1597.5,623C 1598.77,622.691 1599.93,622.191 1601,621.5C 1601.92,618.062 1603.59,615.062 1606,612.5C 1606.33,610.167 1606.67,607.833 1607,605.5C 1609.18,603.594 1611.01,601.428 1612.5,599C 1616.85,598.762 1621.18,599.095 1625.5,600C 1626.5,601 1627.5,602 1628.5,603C 1632.17,603.333 1635.83,603.667 1639.5,604C 1641.46,604.953 1643.12,606.287 1644.5,608C 1645.79,608.49 1647.13,608.657 1648.5,608.5C 1648.5,611.833 1648.5,615.167 1648.5,618.5C 1647.18,618.33 1646.01,618.663 1645,619.5C 1644.67,627.147 1641.67,633.481 1636,638.5C 1635.14,640.087 1634.47,641.754 1634,643.5C 1628.81,649.645 1622.65,654.145 1615.5,657C 1613.21,660.719 1609.88,662.385 1605.5,662C 1604.64,662.689 1603.98,663.522 1603.5,664.5C 1587.18,665.666 1570.84,665.833 1554.5,665C 1551.9,662.041 1548.57,660.707 1544.5,661C 1536.77,655.614 1529.27,649.781 1522,643.5C 1517.23,636.427 1512.56,629.427 1508,622.5C 1507.67,619.833 1507.33,617.167 1507,614.5C 1505.23,612.416 1503.9,610.082 1503,607.5C 1502.33,589.5 1502.33,571.5 1503,553.5C 1504.01,552.663 1505.18,552.33 1506.5,552.5C 1506.68,547.766 1507.34,543.099 1508.5,538.5C 1509.17,538.167 1509.83,537.833 1510.5,537.5C 1510.49,532.836 1512.49,529.503 1516.5,527.5C 1517.83,524.166 1519.66,521.166 1522,518.5C 1527.73,512.412 1534.23,507.578 1541.5,504C 1542.17,503 1542.83,502 1543.5,501C 1548.92,501.372 1553.25,499.538 1556.5,495.5 Z"/></g>
<g><path style="opacity:0.37" fill="#292929" d="M 985.5,500.5 C 965.167,500.5 944.833,500.5 924.5,500.5C 927.241,499.288 929.908,497.788 932.5,496C 949.199,495.128 965.865,495.461 982.5,497C 983.71,498.039 984.71,499.206 985.5,500.5 Z"/></g>
<g><path style="opacity:0.791" fill="#2c2d2c" d="M 81.5,500.5 C 94.4131,500.178 107.246,500.511 120,501.5C 120.667,555.833 120.667,610.167 120,664.5C 107.246,665.489 94.4131,665.822 81.5,665.5C 81.5,610.5 81.5,555.5 81.5,500.5 Z"/></g>
<g><path style="opacity:0.775" fill="#2c2d2c" d="M 138.5,500.5 C 151.837,500.333 165.171,500.5 178.5,501C 183.085,507.633 186.919,514.799 190,522.5C 191.154,523.743 192.488,524.743 194,525.5C 194.333,527.167 194.667,528.833 195,530.5C 197.843,533.995 200.51,537.661 203,541.5C 202.966,545.114 204.633,547.447 208,548.5C 211.484,555.968 215.15,563.301 219,570.5C 222.168,572.158 223.835,574.825 224,578.5C 226.513,581.695 228.846,585.028 231,588.5C 231.813,590.436 232.313,592.436 232.5,594.5C 233.5,594.5 234.5,594.5 235.5,594.5C 234.208,563.278 234.208,532.111 235.5,501C 247.742,500.179 259.909,500.346 272,501.5C 272.667,555.833 272.667,610.167 272,664.5C 258.896,665.822 245.729,665.822 232.5,664.5C 231.876,662.246 230.543,660.579 228.5,659.5C 227.094,653.77 224.094,649.103 219.5,645.5C 219.066,641.336 217.232,638.002 214,635.5C 212.449,631.757 210.616,628.09 208.5,624.5C 207.372,623.738 206.205,623.071 205,622.5C 204.333,619.833 203.667,617.167 203,614.5C 198.678,610.345 195.845,605.345 194.5,599.5C 193.178,599.67 192.011,599.337 191,598.5C 189.268,592.761 186.268,587.761 182,583.5C 181.927,579.355 180.261,576.021 177,573.5C 176.5,604.165 176.333,634.832 176.5,665.5C 163.418,666.136 150.585,665.469 138,663.5C 137.179,609.138 137.346,554.805 138.5,500.5 Z"/></g>
<g><path style="opacity:0.805" fill="#2c2d2c" d="M 283.5,500.5 C 327.833,500.5 372.167,500.5 416.5,500.5C 416.821,511.748 416.487,522.915 415.5,534C 399.837,534.5 384.17,534.667 368.5,534.5C 369.479,578.143 369.812,621.81 369.5,665.5C 356.5,665.5 343.5,665.5 330.5,665.5C 330.183,621.803 330.516,578.137 331.5,534.5C 315.83,534.667 300.163,534.5 284.5,534C 283.513,522.915 283.179,511.748 283.5,500.5 Z"/></g>
<g><path style="opacity:0.795" fill="#2c2d2c" d="M 425.5,500.5 C 467.833,500.5 510.167,500.5 552.5,500.5C 553.131,511.922 552.464,523.088 550.5,534C 522.169,534.5 493.835,534.667 465.5,534.5C 468.076,542.729 468.076,550.896 465.5,559C 465.645,559.772 465.978,560.439 466.5,561C 492.5,561.333 518.5,561.667 544.5,562C 545.825,572.803 545.825,583.637 544.5,594.5C 518.175,595.5 491.842,595.833 465.5,595.5C 468.163,607.447 468.163,619.447 465.5,631.5C 494.169,631.333 522.835,631.5 551.5,632C 552.487,643.085 552.821,654.252 552.5,665.5C 509.928,665.83 467.428,665.497 425,664.5C 424.171,609.763 424.338,555.096 425.5,500.5 Z"/></g>
<g><path style="opacity:0.788" fill="#2c2d2c" d="M 570.5,500.5 C 605.835,500.333 641.168,500.5 676.5,501C 677.167,502 677.833,503 678.5,504C 683.242,503.513 686.908,505.18 689.5,509C 694.139,510.972 697.472,514.305 699.5,519C 700.448,519.483 701.448,519.649 702.5,519.5C 703.167,522.5 703.833,525.5 704.5,528.5C 705.5,528.5 706.5,528.5 707.5,528.5C 708.978,541.863 708.812,555.196 707,568.5C 704.012,572.462 701.012,576.462 698,580.5C 694.636,583.774 691.136,586.941 687.5,590C 683.339,591.255 679.339,592.755 675.5,594.5C 675.351,595.552 675.517,596.552 676,597.5C 682.381,602.38 687.881,608.046 692.5,614.5C 693.246,615.736 693.579,617.07 693.5,618.5C 694.822,618.33 695.989,618.663 697,619.5C 698.044,621.715 698.71,624.048 699,626.5C 700,627.167 701,627.833 702,628.5C 704.08,632.546 706.08,636.546 708,640.5C 709,641.167 710,641.833 711,642.5C 711.974,647.114 713.974,651.114 717,654.5C 718.356,655.38 719.856,655.714 721.5,655.5C 721.5,658.833 721.5,662.167 721.5,665.5C 719.658,665.723 717.825,666.057 716,666.5C 702.509,665.877 689.009,665.211 675.5,664.5C 674.868,662.035 673.368,660.369 671,659.5C 669.855,655.036 667.855,651.036 665,647.5C 663.795,646.929 662.628,646.262 661.5,645.5C 660.055,639.574 656.888,634.907 652,631.5C 651.156,626.572 649.323,622.239 646.5,618.5C 645.178,618.67 644.011,618.337 643,617.5C 640.217,613.049 637.05,608.883 633.5,605C 630.079,605.121 627.412,603.788 625.5,601C 620.845,600.501 616.179,600.334 611.5,600.5C 611.231,602.429 611.731,604.095 613,605.5C 613.821,625.21 613.654,644.877 612.5,664.5C 598.516,665.499 584.516,665.833 570.5,665.5C 570.5,610.5 570.5,555.5 570.5,500.5 Z M 611.5,534.5 C 626.504,534.333 641.504,534.5 656.5,535C 658.69,537.626 661.523,539.126 665,539.5C 665.062,543.407 666.229,546.907 668.5,550C 666.229,553.093 665.062,556.593 665,560.5C 660.977,560.807 657.477,562.307 654.5,565C 640.171,565.5 625.837,565.667 611.5,565.5C 614.167,555.167 614.167,544.833 611.5,534.5 Z"/></g>
<g><path style="opacity:0.797" fill="#2c2c2c" d="M 924.5,500.5 C 944.833,500.5 965.167,500.5 985.5,500.5C 987.857,500.337 990.19,500.503 992.5,501C 997.543,503.515 1002.21,506.515 1006.5,510C 1007.74,511.154 1008.74,512.488 1009.5,514C 1011.33,514.273 1012.83,515.107 1014,516.5C 1018.65,521.494 1022.99,526.828 1027,532.5C 1027.72,536.565 1029.38,540.231 1032,543.5C 1032.33,547.167 1032.67,550.833 1033,554.5C 1035.11,555.953 1036.45,557.953 1037,560.5C 1037.67,575.5 1037.67,590.5 1037,605.5C 1035.7,608.147 1034.37,610.814 1033,613.5C 1033.48,619.282 1031.81,624.282 1028,628.5C 1027.67,630.167 1027.33,631.833 1027,633.5C 1019.93,644.389 1011.09,653.389 1000.5,660.5C 997.683,661.095 995.35,662.428 993.5,664.5C 988.546,664.432 984.546,666.265 981.5,670C 964.833,670.667 948.167,670.667 931.5,670C 928.065,666.181 923.731,664.515 918.5,665C 912.133,659.977 905.466,655.31 898.5,651C 895.747,645.254 891.914,640.421 887,636.5C 886.178,634.212 885.511,631.878 885,629.5C 882.104,626.546 880.771,622.879 881,618.5C 879.833,616.833 878.667,615.167 877.5,613.5C 876.167,593.167 876.167,572.833 877.5,552.5C 881.062,548.549 882.395,543.883 881.5,538.5C 882.5,538.5 883.5,538.5 884.5,538.5C 885.031,535.763 885.864,533.096 887,530.5C 895.48,518.848 905.646,509.182 917.5,501.5C 919.743,500.526 922.076,500.192 924.5,500.5 Z M 948.5,529.5 C 953.511,529.334 958.511,529.501 963.5,530C 967.184,533.23 971.517,534.897 976.5,535C 981.015,539.215 985.182,543.715 989,548.5C 988.513,553.242 990.18,556.908 994,559.5C 994.667,575.167 994.667,590.833 994,606.5C 993.333,607.833 992.333,608.833 991,609.5C 990,612.5 989,615.5 988,618.5C 984.274,622.803 980.44,626.97 976.5,631C 971.577,631.307 967.244,632.973 963.5,636C 958.5,636.667 953.5,636.667 948.5,636C 945.302,632.595 941.302,630.929 936.5,631C 929.913,624.736 924.413,617.57 920,609.5C 920.013,602.984 919.013,596.651 917,590.5C 915.945,583.314 916.612,576.314 919,569.5C 919.333,564.833 919.667,560.167 920,555.5C 920.81,553.694 921.976,552.194 923.5,551C 924.078,549.189 924.578,547.355 925,545.5C 928.515,541.652 932.348,538.152 936.5,535C 941.566,535.159 945.566,533.326 948.5,529.5 Z"/></g>
<g><path style="opacity:0.777" fill="#2c2c2c" d="M 1051.5,500.5 C 1064.84,500.333 1078.17,500.5 1091.5,501C 1092.96,503.266 1093.79,505.766 1094,508.5C 1095,509.167 1096,509.833 1097,510.5C 1099.23,516.205 1102.4,521.205 1106.5,525.5C 1107.17,527.833 1107.83,530.167 1108.5,532.5C 1109.32,533.386 1110.32,533.719 1111.5,533.5C 1111.69,536.877 1113.19,539.544 1116,541.5C 1115.67,545.118 1117.17,547.452 1120.5,548.5C 1124.02,555.541 1127.52,562.541 1131,569.5C 1134.63,571.341 1136.63,574.341 1137,578.5C 1139.15,581.972 1141.49,585.305 1144,588.5C 1143.86,591.923 1145.36,593.923 1148.5,594.5C 1147.37,563.519 1147.2,532.519 1148,501.5C 1160.09,500.512 1172.25,500.178 1184.5,500.5C 1185.83,555.179 1185.83,609.846 1184.5,664.5C 1171.5,665.833 1158.5,665.833 1145.5,664.5C 1144.87,662.035 1143.37,660.369 1141,659.5C 1140.67,657.833 1140.33,656.167 1140,654.5C 1137.98,652.553 1136.48,650.22 1135.5,647.5C 1131.93,645.716 1130.1,642.716 1130,638.5C 1129.08,637.953 1128.24,637.287 1127.5,636.5C 1125.9,632.255 1123.9,628.255 1121.5,624.5C 1117.36,622.565 1115.53,619.232 1116,614.5C 1113.5,612.074 1111.16,609.407 1109,606.5C 1108.02,604.26 1107.52,601.927 1107.5,599.5C 1106.18,599.67 1105.01,599.337 1104,598.5C 1102.16,593.009 1099.16,588.342 1095,584.5C 1094.06,581.879 1093.23,579.212 1092.5,576.5C 1091.2,575.91 1090.37,574.91 1090,573.5C 1089.67,573.833 1089.33,574.167 1089,574.5C 1089.45,604.804 1089.62,635.137 1089.5,665.5C 1076.59,665.822 1063.75,665.489 1051,664.5C 1050.17,609.763 1050.34,555.096 1051.5,500.5 Z"/></g>
<g><path style="opacity:0.777" fill="#2c2c2c" d="M 1206.5,500.5 C 1219.84,500.333 1233.17,500.5 1246.5,501C 1251.09,507.633 1254.92,514.799 1258,522.5C 1259.15,523.743 1260.49,524.743 1262,525.5C 1262.33,527.167 1262.67,528.833 1263,530.5C 1265.84,533.995 1268.51,537.661 1271,541.5C 1270.97,545.114 1272.63,547.447 1276,548.5C 1279.48,555.968 1283.15,563.301 1287,570.5C 1290.17,572.158 1291.83,574.825 1292,578.5C 1294.51,581.695 1296.85,585.028 1299,588.5C 1299.81,590.436 1300.31,592.436 1300.5,594.5C 1301.5,594.5 1302.5,594.5 1303.5,594.5C 1302.2,563.151 1302.2,531.818 1303.5,500.5C 1315.75,500.178 1327.91,500.512 1340,501.5C 1340.67,555.833 1340.67,610.167 1340,664.5C 1326.9,665.822 1313.73,665.822 1300.5,664.5C 1299.88,662.246 1298.54,660.579 1296.5,659.5C 1294.75,653.59 1291.59,648.59 1287,644.5C 1286.58,642.645 1286.08,640.811 1285.5,639C 1282.49,634.311 1279.65,629.477 1277,624.5C 1275.67,623.833 1274.33,623.167 1273,622.5C 1272.33,619.833 1271.67,617.167 1271,614.5C 1266.68,610.345 1263.85,605.345 1262.5,599.5C 1261.18,599.67 1260.01,599.337 1259,598.5C 1257.58,592.93 1254.75,588.263 1250.5,584.5C 1250.26,580.017 1248.43,576.351 1245,573.5C 1244.5,604.165 1244.33,634.832 1244.5,665.5C 1231.42,666.136 1218.58,665.469 1206,663.5C 1205.18,609.138 1205.35,554.805 1206.5,500.5 Z"/></g>
<g><path style="opacity:0.801" fill="#2c2d2c" d="M 1361.5,500.5 C 1403.83,500.5 1446.17,500.5 1488.5,500.5C 1488.82,511.748 1488.49,522.915 1487.5,534C 1458.84,534.5 1430.17,534.667 1401.5,534.5C 1403.51,541.618 1404.01,548.951 1403,556.5C 1401.32,557.865 1401.15,559.365 1402.5,561C 1428.5,561.333 1454.5,561.667 1480.5,562C 1481.83,573 1481.83,584 1480.5,595C 1454.5,595.333 1428.5,595.667 1402.5,596C 1401.22,597.297 1401.38,598.464 1403,599.5C 1404.07,610.368 1403.57,621.035 1401.5,631.5C 1430.5,631.333 1459.5,631.5 1488.5,632C 1489.49,643.085 1489.82,654.252 1489.5,665.5C 1446.83,665.5 1404.17,665.5 1361.5,665.5C 1361.5,610.5 1361.5,555.5 1361.5,500.5 Z"/></g>
<g><path style="opacity:0.805" fill="#2c2d2c" d="M 1652.5,500.5 C 1696.83,500.5 1741.17,500.5 1785.5,500.5C 1785.82,511.748 1785.49,522.915 1784.5,534C 1768.84,534.5 1753.17,534.667 1737.5,534.5C 1738.48,578.137 1738.82,621.803 1738.5,665.5C 1725.5,665.5 1712.5,665.5 1699.5,665.5C 1699.19,621.81 1699.52,578.143 1700.5,534.5C 1684.83,534.667 1669.16,534.5 1653.5,534C 1652.51,522.915 1652.18,511.748 1652.5,500.5 Z"/></g>
<g><path style="opacity:0.636" fill="#ac2820" d="M 93.5,688.5 C 104.172,688.333 114.839,688.5 125.5,689C 126.5,690 127.5,691 128.5,692C 133.424,693.78 138.091,695.947 142.5,698.5C 142.933,701.166 143.433,703.832 144,706.5C 145.011,707.337 146.178,707.67 147.5,707.5C 147.5,710.833 147.5,714.167 147.5,717.5C 146.127,717.343 144.793,717.51 143.5,718C 142.122,719.713 140.455,721.047 138.5,722C 129.412,724.723 123.245,721.89 120,713.5C 117.638,712.648 115.805,711.148 114.5,709C 111.167,708.333 107.833,708.333 104.5,709C 103.833,710 103.167,711 102.5,712C 100.324,712.163 98.4907,712.996 97,714.5C 94.6468,720.722 92.8135,727.055 91.5,733.5C 91.6667,735.833 91.8333,738.167 92,740.5C 94.4956,744.495 96.1622,748.828 97,753.5C 100.702,755.232 104.369,756.899 108,758.5C 109.5,758.333 111,758.167 112.5,758C 114.196,755.495 116.53,753.995 119.5,753.5C 121.707,749.75 123.373,745.75 124.5,741.5C 129.802,740.337 135.136,740.171 140.5,741C 141.803,744.044 144.136,745.211 147.5,744.5C 147.809,749.267 147.309,753.934 146,758.5C 143.504,761.938 141.004,765.438 138.5,769C 134.604,772.103 130.604,774.936 126.5,777.5C 115.515,778.666 104.515,778.832 93.5,778C 91.0376,775.464 88.0376,773.964 84.5,773.5C 81.5932,770.883 78.9266,768.049 76.5,765C 75.2341,764.691 74.0674,764.191 73,763.5C 73.3529,759.448 71.8529,756.448 68.5,754.5C 67.334,741.179 67.1673,727.846 68,714.5C 68.9906,713.061 70.324,712.061 72,711.5C 72.3333,709.167 72.6667,706.833 73,704.5C 76.5492,700.65 80.3825,697.15 84.5,694C 88.2004,693.157 91.2004,691.324 93.5,688.5 Z"/></g>
<g><path style="opacity:0.627" fill="#ac2820" d="M 152.5,688.5 C 160.5,688.5 168.5,688.5 176.5,688.5C 176.5,718.5 176.5,748.5 176.5,778.5C 168.248,778.816 160.081,778.482 152,777.5C 151.216,747.734 151.383,718.068 152.5,688.5 Z"/></g>
<g><path style="opacity:0.384" fill="#ac2820" d="M 360.5,688.5 C 369.192,688.169 377.859,688.502 386.5,689.5C 390.452,702.05 385.952,706.717 373,703.5C 368.833,703.167 364.667,702.833 360.5,702.5C 359.227,697.835 359.227,693.168 360.5,688.5 Z"/></g>
<g><path style="opacity:0.633" fill="#ac2820" d="M 533.5,688.5 C 542.525,688.168 551.525,688.502 560.5,689.5C 561.287,695.859 561.62,702.192 561.5,708.5C 570.137,707.196 578.804,707.196 587.5,708.5C 591.765,711.046 595.265,714.379 598,718.5C 599.476,738.408 599.976,758.408 599.5,778.5C 591.5,778.5 583.5,778.5 575.5,778.5C 575.667,763.83 575.5,749.163 575,734.5C 574,732.5 573,730.5 572,728.5C 566.277,726.361 562.777,728.361 561.5,734.5C 561.756,735.689 562.089,736.856 562.5,738C 561.694,751.134 561.194,764.301 561,777.5C 551.917,778.485 542.751,778.818 533.5,778.5C 533.5,748.5 533.5,718.5 533.5,688.5 Z"/></g>
<g><path style="opacity:0.661" fill="#ad2820" d="M 911.5,688.5 C 920.167,688.5 928.833,688.5 937.5,688.5C 937.559,691.731 939.059,694.065 942,695.5C 942.662,697.813 943.162,700.146 943.5,702.5C 944.675,702.281 945.675,702.614 946.5,703.5C 948.061,707.725 950.061,711.725 952.5,715.5C 956.067,718.164 957.734,721.831 957.5,726.5C 959.124,726.36 960.29,727.027 961,728.5C 961.5,715.171 961.667,701.837 961.5,688.5C 970.085,688.183 978.585,688.517 987,689.5C 987.5,719.165 987.667,748.831 987.5,778.5C 979.16,778.666 970.827,778.5 962.5,778C 958.264,772.65 954.764,766.817 952,760.5C 950.667,759.833 949.333,759.167 948,758.5C 947.667,756.167 947.333,753.833 947,751.5C 946,750.833 945,750.167 944,749.5C 942.254,745.673 940.254,742.007 938,738.5C 938.508,751.29 938.508,764.29 938,777.5C 928.917,778.485 919.751,778.818 910.5,778.5C 910.175,748.426 910.508,718.426 911.5,688.5 Z"/></g>
<g><path style="opacity:0.393" fill="#ac2820" d="M 995.5,688.5 C 1004.17,688.334 1012.84,688.5 1021.5,689C 1022.63,693.413 1022.8,697.913 1022,702.5C 1013.58,703.649 1005.08,703.816 996.5,703C 995.531,698.263 995.197,693.43 995.5,688.5 Z"/></g>
<g><path style="opacity:0.432" fill="#ac2820" d="M 1210.5,688.5 C 1218.53,688.169 1226.53,688.502 1234.5,689.5C 1235.83,693.833 1235.83,698.167 1234.5,702.5C 1226.85,703.665 1219.19,703.831 1211.5,703C 1210.53,698.263 1210.2,693.43 1210.5,688.5 Z"/></g>
<g><path style="opacity:0.662" fill="#ac2820" d="M 1342.5,688.5 C 1350.5,688.5 1358.5,688.5 1366.5,688.5C 1366.79,711.859 1366.46,735.193 1365.5,758.5C 1379.87,758.218 1394.2,758.551 1408.5,759.5C 1408.5,765.833 1408.5,772.167 1408.5,778.5C 1386.5,778.5 1364.5,778.5 1342.5,778.5C 1342.5,748.5 1342.5,718.5 1342.5,688.5 Z"/></g>
<g><path style="opacity:0.43" fill="#ac2820" d="M 1413.5,688.5 C 1421.5,688.5 1429.5,688.5 1437.5,688.5C 1437.67,693.179 1437.5,697.845 1437,702.5C 1429,703.833 1421,703.833 1413,702.5C 1412.23,697.748 1412.39,693.081 1413.5,688.5 Z"/></g>
<g><path style="opacity:0.393" fill="#ac2820" d="M 1546.5,688.5 C 1555.17,688.5 1563.83,688.5 1572.5,688.5C 1572.67,693.179 1572.5,697.845 1572,702.5C 1563.33,703.833 1554.67,703.833 1546,702.5C 1545.23,697.748 1545.39,693.081 1546.5,688.5 Z"/></g>
<g><path style="opacity:0.643" fill="#ac2820" d="M 1615.5,726.5 C 1616.82,726.67 1617.99,726.337 1619,725.5C 1620.04,723.285 1620.71,720.952 1621,718.5C 1624.93,714.815 1629.1,711.315 1633.5,708C 1642.83,707.333 1652.17,707.333 1661.5,708C 1663.9,710.062 1666.57,711.729 1669.5,713C 1671.32,715.821 1673.49,718.321 1676,720.5C 1676.7,725.409 1678.03,730.075 1680,734.5C 1681.1,730.584 1681.77,726.584 1682,722.5C 1685.15,719.683 1687.98,716.516 1690.5,713C 1693.01,711.579 1695.34,709.912 1697.5,708C 1705.17,707.333 1712.83,707.333 1720.5,708C 1721.21,709.255 1722.04,710.421 1723,711.5C 1723.5,711 1724,710.5 1724.5,710C 1723.52,702.921 1723.19,695.755 1723.5,688.5C 1731.5,688.5 1739.5,688.5 1747.5,688.5C 1747.5,718.5 1747.5,748.5 1747.5,778.5C 1730.87,778.14 1714.21,777.806 1697.5,777.5C 1693.58,775.088 1690.08,772.088 1687,768.5C 1686.67,765.5 1685,763.833 1682,763.5C 1681.8,759.247 1681.3,755.08 1680.5,751C 1666.84,750.5 1653.17,750.333 1639.5,750.5C 1639.35,751.552 1639.52,752.552 1640,753.5C 1642.33,754.413 1644.17,755.913 1645.5,758C 1649.58,759.151 1652.91,758.151 1655.5,755C 1661.56,754.261 1667.56,754.594 1673.5,756C 1678.29,758.799 1679.79,762.966 1678,768.5C 1673.77,772.035 1669.27,775.201 1664.5,778C 1654.17,778.667 1643.83,778.667 1633.5,778C 1628.72,775.22 1624.55,771.72 1621,767.5C 1620.27,765.129 1619.43,762.795 1618.5,760.5C 1617.68,759.614 1616.68,759.281 1615.5,759.5C 1616.62,765.528 1616.62,771.528 1615.5,777.5C 1606.85,778.665 1598.19,778.832 1589.5,778C 1587.92,775.923 1585.92,774.423 1583.5,773.5C 1582.5,758.181 1582.17,742.848 1582.5,727.5C 1578.99,728.006 1575.83,727.34 1573,725.5C 1572.5,743.164 1572.33,760.83 1572.5,778.5C 1563.58,778.817 1554.75,778.484 1546,777.5C 1545.33,754.5 1545.33,731.5 1546,708.5C 1554.09,707.352 1562.25,707.185 1570.5,708C 1571.3,712.414 1571.8,716.914 1572,721.5C 1572.33,717.167 1572.67,712.833 1573,708.5C 1576.06,707.549 1579.22,707.216 1582.5,707.5C 1582.33,703.818 1582.5,700.152 1583,696.5C 1585.23,694.032 1588.06,692.865 1591.5,693C 1595.53,688.803 1600.53,687.303 1606.5,688.5C 1606.67,693.179 1606.5,697.845 1606,702.5C 1603.89,704.271 1604.05,705.771 1606.5,707C 1609.76,707.212 1612.92,707.712 1616,708.5C 1616.58,714.522 1616.41,720.522 1615.5,726.5 Z M 1615.5,726.5 C 1615.67,736.839 1615.5,747.172 1615,757.5C 1614.44,756.978 1613.77,756.645 1613,756.5C 1610.68,757.871 1608.18,758.538 1605.5,758.5C 1606.55,749.527 1606.72,740.527 1606,731.5C 1605.63,730.584 1605.13,729.75 1604.5,729C 1608.06,727.842 1611.73,727.008 1615.5,726.5 Z M 1645.5,727.5 C 1650.44,727.59 1654.11,729.924 1656.5,734.5C 1650.87,735.495 1645.21,735.829 1639.5,735.5C 1639.35,734.448 1639.52,733.448 1640,732.5C 1642.33,731.336 1644.16,729.67 1645.5,727.5 Z M 1710.5,727.5 C 1712.86,727.337 1715.19,727.503 1717.5,728C 1723.28,734.369 1725.12,741.869 1723,750.5C 1720.47,756.075 1716.31,758.575 1710.5,758C 1709.67,755.833 1708.17,754.333 1706,753.5C 1705.33,746.5 1705.33,739.5 1706,732.5C 1708.39,731.61 1709.89,729.943 1710.5,727.5 Z"/></g>
<g><path style="opacity:0.62" fill="#ac2820" d="M 198.5,707.5 C 207.839,707.334 217.173,707.5 226.5,708C 228.83,710.167 231.497,711.834 234.5,713C 236.322,715.821 238.489,718.321 241,720.5C 241.879,723.818 242.713,727.152 243.5,730.5C 244.167,730.833 244.833,731.167 245.5,731.5C 246.493,736.12 246.827,740.786 246.5,745.5C 249.77,745.698 251.77,744.198 252.5,741C 255.657,740.258 258.323,738.758 260.5,736.5C 263.806,735.837 267.139,735.337 270.5,735C 274.45,731.406 279.116,729.906 284.5,730.5C 283.707,723.851 280.207,721.517 274,723.5C 273.378,726.585 271.878,729.085 269.5,731C 262.918,731.81 256.418,731.643 250,730.5C 248.349,720.621 252.182,714.121 261.5,711C 262.167,710 262.833,709 263.5,708C 274.167,707.333 284.833,707.333 295.5,708C 299.995,709.992 303.828,712.825 307,716.5C 308.761,731.485 308.928,746.485 307.5,761.5C 308.937,763.577 309.604,765.91 309.5,768.5C 310.5,768.5 311.5,768.5 312.5,768.5C 312.5,748.167 312.5,727.833 312.5,707.5C 328.167,707.5 343.833,707.5 359.5,707.5C 359.337,709.857 359.503,712.19 360,714.5C 360.236,712.236 360.736,710.069 361.5,708C 369.827,707.5 378.16,707.334 386.5,707.5C 387.833,731.167 387.833,754.833 386.5,778.5C 377.582,778.817 368.749,778.484 360,777.5C 359.384,758.126 359.384,738.793 360,719.5C 358.665,721.76 357.165,723.927 355.5,726C 351.284,727.204 346.951,727.87 342.5,728C 342,728.5 341.5,729 341,729.5C 339.073,745.639 337.907,761.806 337.5,778C 321.49,778.833 305.49,778.666 289.5,777.5C 288.167,774.833 286.833,774.833 285.5,777.5C 276.5,778.833 267.5,778.833 258.5,777.5C 253.961,774.926 250.128,771.593 247,767.5C 246.501,761.843 246.334,756.176 246.5,750.5C 232.5,750.5 218.5,750.5 204.5,750.5C 204.351,751.552 204.517,752.552 205,753.5C 207.124,754.622 208.957,756.122 210.5,758C 214.579,759.151 217.912,758.151 220.5,755C 226.558,754.261 232.558,754.594 238.5,756C 242.532,759.655 243.532,764.155 241.5,769.5C 237.679,772.578 233.679,775.411 229.5,778C 219.167,778.667 208.833,778.667 198.5,778C 193.721,775.22 189.554,771.72 186,767.5C 184.659,764.978 183.826,762.311 183.5,759.5C 182.5,759.5 181.5,759.5 180.5,759.5C 180.5,748.5 180.5,737.5 180.5,726.5C 181.822,726.67 182.989,726.337 184,725.5C 185.044,723.285 185.71,720.952 186,718.5C 190.21,714.812 194.377,711.145 198.5,707.5 Z M 210.5,727.5 C 215.442,727.59 219.108,729.924 221.5,734.5C 215.872,735.495 210.206,735.829 204.5,735.5C 204.351,734.448 204.517,733.448 205,732.5C 207.328,731.336 209.162,729.67 210.5,727.5 Z M 274.5,750.5 C 277.518,750.335 280.518,750.502 283.5,751C 284.11,753.466 283.776,755.966 282.5,758.5C 277.376,765.558 273.376,764.891 270.5,756.5C 271.432,754.235 272.765,752.235 274.5,750.5 Z"/></g>
<g><path style="opacity:0.64" fill="#ac2820" d="M 392.5,707.5 C 400.167,707.5 407.833,707.5 415.5,707.5C 416.456,712.63 418.123,712.797 420.5,708C 428.833,707.333 437.167,707.333 445.5,708C 447.305,710.403 449.638,712.07 452.5,713C 453.352,715.362 454.852,717.195 457,718.5C 458.452,738.446 458.952,758.446 458.5,778.5C 450.5,778.5 442.5,778.5 434.5,778.5C 434.667,764.163 434.5,749.829 434,735.5C 432.249,733.51 431.249,731.177 431,728.5C 428.936,727.409 426.769,727.242 424.5,728C 423.845,729.487 422.845,730.653 421.5,731.5C 420.667,746.822 420.167,762.156 420,777.5C 410.917,778.485 401.751,778.818 392.5,778.5C 392.5,754.833 392.5,731.167 392.5,707.5 Z"/></g>
<g><path style="opacity:0.673" fill="#ac2820" d="M 519.5,799.5 C 502.833,799.5 486.167,799.5 469.5,799.5C 468.545,797.254 467.878,794.921 467.5,792.5C 466.167,792.5 464.833,792.5 463.5,792.5C 462.603,787.86 462.436,783.194 463,778.5C 468.159,777.802 473.326,777.469 478.5,777.5C 475.281,774.962 472.114,772.296 469,769.5C 467.991,767.975 467.491,766.308 467.5,764.5C 466.167,764.5 464.833,764.5 463.5,764.5C 462.167,750.167 462.167,735.833 463.5,721.5C 464.833,721.5 466.167,721.5 467.5,721.5C 467.762,718.309 469.095,715.642 471.5,713.5C 474.716,712.398 477.383,710.564 479.5,708C 487.188,707.169 494.855,707.335 502.5,708.5C 504.358,712.29 506.025,712.29 507.5,708.5C 514.724,707.188 521.891,707.188 529,708.5C 529.667,734.5 529.667,760.5 529,786.5C 525.83,789.591 522.83,792.924 520,796.5C 519.517,797.448 519.351,798.448 519.5,799.5 Z M 492.5,727.5 C 494.527,727.338 496.527,727.505 498.5,728C 499.958,730.46 501.791,732.627 504,734.5C 504.667,740.167 504.667,745.833 504,751.5C 501.477,754.877 498.31,757.21 494.5,758.5C 491.908,757.093 489.408,755.426 487,753.5C 486.333,746.5 486.333,739.5 487,732.5C 489.617,731.649 491.451,729.982 492.5,727.5 Z M 503.5,774.5 C 504.497,774.47 505.164,774.97 505.5,776C 504.182,777.99 502.848,779.99 501.5,782C 495.5,782.667 489.5,782.667 483.5,782C 482.09,781.632 481.09,780.799 480.5,779.5C 487.476,778.669 494.476,778.169 501.5,778C 502.305,776.887 502.972,775.721 503.5,774.5 Z"/></g>
<g><path style="opacity:0.659" fill="#ac2820" d="M 625.5,707.5 C 635.172,707.334 644.839,707.5 654.5,708C 659.823,710.903 664.657,714.403 669,718.5C 669.855,721.601 671.355,724.268 673.5,726.5C 674.499,737.48 674.832,748.48 674.5,759.5C 673.178,759.33 672.011,759.663 671,760.5C 670.904,763.451 670.071,766.118 668.5,768.5C 664.006,771.914 659.34,775.081 654.5,778C 644.816,778.832 635.149,778.665 625.5,777.5C 615.378,772.872 608.545,765.206 605,754.5C 604.168,746.479 604.335,738.479 605.5,730.5C 607.83,728.425 608.997,725.758 609,722.5C 611.598,721.32 613.264,719.32 614,716.5C 616.507,713.493 619.674,711.493 623.5,710.5C 624.425,709.643 625.092,708.643 625.5,707.5 Z M 636.5,727.5 C 638.857,727.337 641.19,727.503 643.5,728C 645.333,730.5 647.5,732.667 650,734.5C 650.667,740.167 650.667,745.833 650,751.5C 647.5,753.333 645.333,755.5 643.5,758C 641.167,758.667 638.833,758.667 636.5,758C 635.667,755.833 634.167,754.333 632,753.5C 631.025,749.75 629.525,746.25 627.5,743C 629.525,739.75 631.025,736.25 632,732.5C 634.391,731.61 635.891,729.943 636.5,727.5 Z"/></g>
<g><path style="opacity:0.659" fill="#ac2820" d="M 678.5,707.5 C 686.833,707.5 695.167,707.5 703.5,707.5C 703.333,723.17 703.5,738.837 704,754.5C 705.691,758.213 708.525,759.379 712.5,758C 714.167,755.833 715.833,753.667 717.5,751.5C 716.351,737.212 716.184,722.878 717,708.5C 725,707.167 733,707.167 741,708.5C 741.394,731.543 741.394,754.543 741,777.5C 734.582,778.643 728.082,778.81 721.5,778C 720.167,776 718.833,776 717.5,778C 708.833,778.667 700.167,778.667 691.5,778C 689.924,775.923 687.924,774.423 685.5,773.5C 684.774,770.607 682.941,768.941 680,768.5C 678.964,766.13 678.464,763.63 678.5,761C 679.367,743.175 679.367,725.342 678.5,707.5 Z"/></g>
<g><path style="opacity:0.6" fill="#ac2820" d="M 767.5,754.5 C 767.489,752.983 766.823,751.816 765.5,751C 762.964,750.661 760.464,750.161 758,749.5C 756.175,746.844 753.675,745.178 750.5,744.5C 741.716,729.316 744.716,717.149 759.5,708C 771.181,707.167 782.848,707.334 794.5,708.5C 797.225,710.835 799.891,713.168 802.5,715.5C 803.689,716.429 805.022,716.762 806.5,716.5C 806.789,720.106 806.456,723.606 805.5,727C 802.441,727.058 800.108,728.391 798.5,731C 793.833,731.333 789.167,731.667 784.5,732C 785.167,733 785.833,734 786.5,735C 790.25,735.26 793.916,735.927 797.5,737C 800.176,739.19 803.009,741.024 806,742.5C 805.954,745.633 806.954,748.3 809,750.5C 809.989,759.315 807.489,766.815 801.5,773C 798.576,773.683 796.242,775.183 794.5,777.5C 782.167,778.833 769.833,778.833 757.5,777.5C 755.758,775.183 753.424,773.683 750.5,773C 749.781,770.444 748.114,769.277 745.5,769.5C 745.211,765.894 745.544,762.394 746.5,759C 749.501,759.094 751.501,757.761 752.5,755C 757.489,754.501 762.489,754.334 767.5,754.5 Z M 771.5,722.5 C 778.427,721.775 782.427,724.775 783.5,731.5C 779.51,731.001 775.51,730.501 771.5,730C 768.914,727.506 768.914,725.006 771.5,722.5 Z M 767.5,754.5 C 772.492,754.999 777.492,755.499 782.5,756C 784.58,761.262 782.746,763.762 777,763.5C 772.101,762.437 768.935,759.437 767.5,754.5 Z"/></g>
<g><path style="opacity:0.644" fill="#ac2820" d="M 829.5,707.5 C 839.273,707.052 848.939,707.552 858.5,709C 863.252,711.748 867.419,715.248 871,719.5C 872.127,722.377 872.794,725.377 873,728.5C 874.602,730.307 875.936,732.307 877,734.5C 877.804,739.751 877.637,744.918 876.5,750C 862.504,750.5 848.504,750.667 834.5,750.5C 834.351,751.552 834.517,752.552 835,753.5C 837.428,754.63 839.595,756.13 841.5,758C 845.628,759.281 848.961,758.281 851.5,755C 857.225,754.283 862.891,754.616 868.5,756C 870.286,756.785 871.786,757.951 873,759.5C 873.498,762.817 873.665,766.15 873.5,769.5C 872.448,769.351 871.448,769.517 870.5,770C 867.37,773.021 864.037,775.687 860.5,778C 849.833,778.667 839.167,778.667 828.5,778C 827.41,775.348 825.41,773.848 822.5,773.5C 821.422,771.003 819.589,769.337 817,768.5C 815.803,765.911 814.803,763.244 814,760.5C 812.989,759.663 811.822,759.33 810.5,759.5C 810.692,748.917 810.858,738.251 811,727.5C 812.205,726.929 813.372,726.262 814.5,725.5C 815.167,723.167 815.833,720.833 816.5,718.5C 820.639,714.598 824.972,710.931 829.5,707.5 Z M 840.5,727.5 C 846.454,727.131 850.12,729.797 851.5,735.5C 845.833,735.5 840.167,735.5 834.5,735.5C 834.626,732.405 836.293,730.572 839.5,730C 840.252,729.329 840.586,728.496 840.5,727.5 Z"/></g>
<g><path style="opacity:0.566" fill="#ac2820" d="M 995.5,707.5 C 1004.42,707.183 1013.25,707.516 1022,708.5C 1022.67,731.5 1022.67,754.5 1022,777.5C 1013.25,778.484 1004.42,778.817 995.5,778.5C 995.5,754.833 995.5,731.167 995.5,707.5 Z"/></g>
<g><path style="opacity:0.68" fill="#ac2820" d="M 1084.5,799.5 C 1067.5,799.5 1050.5,799.5 1033.5,799.5C 1033.73,795.287 1031.9,792.62 1028,791.5C 1027.5,786.845 1027.33,782.179 1027.5,777.5C 1032.86,777.738 1038.19,777.904 1043.5,778C 1041.84,775.081 1039.34,773.248 1036,772.5C 1033.86,770.382 1032.36,767.882 1031.5,765C 1030.23,764.691 1029.07,764.191 1028,763.5C 1027.33,749.833 1027.33,736.167 1028,722.5C 1029.33,721.833 1030.67,721.167 1032,720.5C 1032.56,717.71 1033.89,715.377 1036,713.5C 1039.4,712.551 1042.23,710.718 1044.5,708C 1051.83,707.333 1059.17,707.333 1066.5,708C 1068.5,712.667 1070.5,712.667 1072.5,708C 1079.49,707.5 1086.49,707.334 1093.5,707.5C 1093.67,734.169 1093.5,760.835 1093,787.5C 1091.99,788.337 1090.82,788.67 1089.5,788.5C 1088.24,792.403 1086.57,796.07 1084.5,799.5 Z M 1056.5,727.5 C 1062.29,727.424 1066.45,730.09 1069,735.5C 1069.67,740.5 1069.67,745.5 1069,750.5C 1066.93,753.109 1064.77,755.609 1062.5,758C 1060.5,758.667 1058.5,758.667 1056.5,758C 1055.67,755.833 1054.17,754.333 1052,753.5C 1051.33,746.5 1051.33,739.5 1052,732.5C 1054.39,731.61 1055.89,729.943 1056.5,727.5 Z M 1068.5,774.5 C 1069.29,774.783 1069.96,775.283 1070.5,776C 1069.17,778 1067.83,780 1066.5,782C 1060.5,782.667 1054.5,782.667 1048.5,782C 1047.09,781.632 1046.09,780.799 1045.5,779.5C 1052.14,778.669 1058.81,778.169 1065.5,778C 1066.71,776.961 1067.71,775.794 1068.5,774.5 Z"/></g>
<g><path style="opacity:0.658" fill="#ac2820" d="M 1115.5,707.5 C 1124.52,707.168 1133.52,707.502 1142.5,708.5C 1146.35,711.123 1150.02,713.957 1153.5,717C 1155.17,720.255 1157,723.422 1159,726.5C 1159.5,734.493 1159.67,742.493 1159.5,750.5C 1146.5,750.5 1133.5,750.5 1120.5,750.5C 1123.67,759.27 1129,760.77 1136.5,755C 1141.53,754.272 1146.53,754.439 1151.5,755.5C 1153.53,757.641 1156.03,758.974 1159,759.5C 1159.67,762.5 1159.67,765.5 1159,768.5C 1155.6,770.762 1152.1,772.929 1148.5,775C 1147.83,776 1147.17,777 1146.5,778C 1135.83,778.667 1125.17,778.667 1114.5,778C 1104.37,772.874 1098.54,764.708 1097,753.5C 1096.15,743.071 1096.82,732.738 1099,722.5C 1101.44,721.726 1102.77,720.06 1103,717.5C 1106.96,713.787 1111.13,710.454 1115.5,707.5 Z M 1125.5,727.5 C 1127.53,727.338 1129.53,727.505 1131.5,728C 1132.67,729.833 1134.17,731.333 1136,732.5C 1136.48,733.448 1136.65,734.448 1136.5,735.5C 1131.17,735.5 1125.83,735.5 1120.5,735.5C 1120.35,734.448 1120.52,733.448 1121,732.5C 1122.71,730.963 1124.21,729.296 1125.5,727.5 Z"/></g>
<g><path style="opacity:0.613" fill="#ac2820" d="M 1164.5,707.5 C 1188.07,707.173 1211.57,707.506 1235,708.5C 1235.18,731.521 1235.18,754.521 1235,777.5C 1226.92,778.482 1218.75,778.816 1210.5,778.5C 1210.83,759.821 1210.5,741.155 1209.5,722.5C 1208.25,724.044 1206.92,725.544 1205.5,727C 1201.02,726.937 1196.85,727.77 1193,729.5C 1193.31,734.626 1192.31,739.626 1190,744.5C 1189.5,755.828 1189.33,767.162 1189.5,778.5C 1180.91,778.817 1172.41,778.483 1164,777.5C 1164.12,754.245 1164.29,730.911 1164.5,707.5 Z"/></g>
<g><path style="opacity:0.645" fill="#ac2820" d="M 1256.5,707.5 C 1267.17,707.333 1277.84,707.5 1288.5,708C 1292.93,709.877 1296.59,712.71 1299.5,716.5C 1300.33,732.156 1300.83,747.823 1301,763.5C 1304.69,767.779 1306.19,772.779 1305.5,778.5C 1297.8,778.831 1290.14,778.497 1282.5,777.5C 1280.8,774.973 1279.13,775.14 1277.5,778C 1268.81,778.832 1260.15,778.665 1251.5,777.5C 1247.22,774.962 1243.39,771.962 1240,768.5C 1239.17,760.812 1239.34,753.145 1240.5,745.5C 1243.35,744.988 1244.68,743.321 1244.5,740.5C 1247.6,740.908 1249.93,739.741 1251.5,737C 1255.44,736.007 1259.44,735.34 1263.5,735C 1267.45,731.406 1272.12,729.906 1277.5,730.5C 1277.05,727.86 1275.88,725.527 1274,723.5C 1268.77,721.099 1265.77,722.765 1265,728.5C 1264.1,729.701 1262.93,730.535 1261.5,731C 1255.18,731.5 1248.84,731.666 1242.5,731.5C 1242.21,727.064 1242.71,722.73 1244,718.5C 1246.4,717.219 1248.24,715.386 1249.5,713C 1252.98,712.479 1255.32,710.645 1256.5,707.5 Z M 1267.5,750.5 C 1270.5,750.5 1273.5,750.5 1276.5,750.5C 1277.15,756.502 1274.81,760.836 1269.5,763.5C 1261.53,759.979 1260.86,755.646 1267.5,750.5 Z"/></g>
<g><path style="opacity:0.622" fill="#ac2820" d="M 1413.5,707.5 C 1421.42,707.185 1429.25,707.518 1437,708.5C 1437.67,731.5 1437.67,754.5 1437,777.5C 1429.25,778.482 1421.42,778.815 1413.5,778.5C 1412.33,754.769 1412.33,731.102 1413.5,707.5 Z"/></g>
<g><path style="opacity:0.659" fill="#ac2820" d="M 1441.5,707.5 C 1448.86,707.169 1456.2,707.503 1463.5,708.5C 1465.4,712.469 1467.07,712.303 1468.5,708C 1476.17,707.333 1483.83,707.333 1491.5,708C 1493.64,710.14 1495.81,712.306 1498,714.5C 1500.81,712.85 1503.31,710.85 1505.5,708.5C 1513.17,707.167 1520.83,707.167 1528.5,708.5C 1530.18,710.76 1532.34,712.427 1535,713.5C 1535.48,714.448 1535.65,715.448 1535.5,716.5C 1537.91,716.137 1539.41,717.137 1540,719.5C 1540.5,739.164 1540.67,758.831 1540.5,778.5C 1532.5,778.5 1524.5,778.5 1516.5,778.5C 1516.67,762.83 1516.5,747.163 1516,731.5C 1514.6,727.721 1512.1,726.721 1508.5,728.5C 1506.81,730.359 1505.31,732.359 1504,734.5C 1503.5,749.163 1503.33,763.83 1503.5,778.5C 1495.17,778.5 1486.83,778.5 1478.5,778.5C 1478.67,762.163 1478.5,745.83 1478,729.5C 1476.16,727.396 1474,727.062 1471.5,728.5C 1468.99,732.183 1467.15,736.183 1466,740.5C 1465.5,753.162 1465.33,765.829 1465.5,778.5C 1457.5,778.5 1449.5,778.5 1441.5,778.5C 1441.5,754.833 1441.5,731.167 1441.5,707.5 Z"/></g>
</svg>
