<svg id="Layer_1" data-name="Layer 1" xmlns="http://www.w3.org/2000/svg" viewBox="0 0 302.62 54.32"><defs><style>.cls-1{fill:#fff;}.cls-2{fill:#18355e;stroke:#18355e;stroke-miterlimit:10;}</style></defs><title>Scoremee11_plain</title><path class="cls-1" d="M237.65,815.26a15.26,15.26,0,0,1-2.43,8.47,16.12,16.12,0,0,1-7.1,5.88A26.61,26.61,0,0,1,217,831.73q-7.69,0-12.68-2.9a16.89,16.89,0,0,1-5.76-5.58,12.66,12.66,0,0,1-2.21-6.78,4.6,4.6,0,0,1,4.71-4.64,4,4,0,0,1,2.82,1.06,8.37,8.37,0,0,1,2,3.15,21,21,0,0,0,2.14,4.14,8.68,8.68,0,0,0,3.24,2.75,12,12,0,0,0,5.49,1.08,12.39,12.39,0,0,0,7.6-2.18,6.55,6.55,0,0,0,2.92-5.44,5.75,5.75,0,0,0-1.58-4.2,10.17,10.17,0,0,0-4.07-2.46q-2.5-.85-6.68-1.81a48.93,48.93,0,0,1-9.37-3.06,15.13,15.13,0,0,1-6-4.78,12.41,12.41,0,0,1-2.21-7.53,12.93,12.93,0,0,1,2.34-7.62,14.74,14.74,0,0,1,6.77-5.12A27.71,27.71,0,0,1,216.89,778a25.77,25.77,0,0,1,8.27,1.19,17.5,17.5,0,0,1,5.79,3.15,13.18,13.18,0,0,1,3.37,4.13,9.52,9.52,0,0,1,1.06,4.22,5,5,0,0,1-1.33,3.38,4.24,4.24,0,0,1-3.31,1.51,3.81,3.81,0,0,1-2.75-.9,12.15,12.15,0,0,1-2-3,13.42,13.42,0,0,0-3.4-4.59q-2-1.65-6.38-1.65a11,11,0,0,0-6.57,1.79,5.2,5.2,0,0,0-2.5,4.3,4.36,4.36,0,0,0,.85,2.69,7.15,7.15,0,0,0,2.34,1.95,15.74,15.74,0,0,0,3,1.28q1.52.46,5,1.35a79.16,79.16,0,0,1,8,2.27,24.17,24.17,0,0,1,6.06,3,12.4,12.4,0,0,1,3.9,4.48A14.35,14.35,0,0,1,237.65,815.26Z" transform="translate(-196.38 -778.03)"/><path class="cls-1" d="M274.3,819.76a8.34,8.34,0,0,1-1.08,3.86,13.28,13.28,0,0,1-3.29,3.91,17,17,0,0,1-5.58,3,23.68,23.68,0,0,1-7.58,1.13q-9,0-14-5.22t-5-14a23.07,23.07,0,0,1,2.3-10.52,16.53,16.53,0,0,1,6.66-7.07,22.64,22.64,0,0,1,17.3-1.4,18,18,0,0,1,5.31,2.83,13.59,13.59,0,0,1,3.33,3.7,7.33,7.33,0,0,1,1.15,3.67,3.87,3.87,0,0,1-1.29,2.94,4.43,4.43,0,0,1-3.13,1.2,3.16,3.16,0,0,1-2-.62,9.8,9.8,0,0,1-1.79-2,14.66,14.66,0,0,0-3.7-4,9.09,9.09,0,0,0-11.81,2q-2.62,3.35-2.62,9.16a17.68,17.68,0,0,0,.67,5,11.39,11.39,0,0,0,1.95,3.9,8.34,8.34,0,0,0,3.08,2.44,9.36,9.36,0,0,0,4,.83,8.93,8.93,0,0,0,5-1.35,11.77,11.77,0,0,0,3.67-4.11,9.45,9.45,0,0,1,1.91-2.55,3.63,3.63,0,0,1,2.52-.92,3.73,3.73,0,0,1,2.94,1.35A4.31,4.31,0,0,1,274.3,819.76Z" transform="translate(-196.38 -778.03)"/><path class="cls-1" d="M275.45,818.28c.16.6.35,1.18.55,1.75a17.53,17.53,0,0,0,3.9,6.23,17.27,17.27,0,0,0,3.56,2.81Z" transform="translate(-196.38 -778.03)"/><path class="cls-1" d="M311.19,802.53l-24.79,20.2-7.85-11-3.78,2.65c-.07-.75-.1-1.53-.1-2.32a23.16,23.16,0,0,1,1.34-8,17.53,17.53,0,0,1,3.87-6.23,17,17,0,0,1,6.09-4,23.08,23.08,0,0,1,15.87,0,17.28,17.28,0,0,1,6.12,4A16.92,16.92,0,0,1,311.19,802.53Z" transform="translate(-196.38 -778.03)"/><path class="cls-1" d="M313.18,812.07a22.93,22.93,0,0,1-1.34,8,17.62,17.62,0,0,1-3.9,6.27,17.21,17.21,0,0,1-6.09,4,21.6,21.6,0,0,1-8,1.4,21.35,21.35,0,0,1-7.25-1.17L313,808.63A24.56,24.56,0,0,1,313.18,812.07Z" transform="translate(-196.38 -778.03)"/><path class="cls-1" d="M325.17,817.78v8.08a6.23,6.23,0,0,1-1.38,4.41,4.61,4.61,0,0,1-3.51,1.47,4.43,4.43,0,0,1-3.44-1.49,6.35,6.35,0,0,1-1.35-4.39V798.93q0-6.52,4.71-6.52a3.93,3.93,0,0,1,3.47,1.52,8.41,8.41,0,0,1,1.17,4.5,16.91,16.91,0,0,1,3.56-4.5,7.36,7.36,0,0,1,4.87-1.52,12.47,12.47,0,0,1,5.92,1.52q2.87,1.52,2.87,4a3.84,3.84,0,0,1-1.22,2.92A3.79,3.79,0,0,1,338.2,802a12.14,12.14,0,0,1-2.57-.66,12,12,0,0,0-3.6-.66,5.26,5.26,0,0,0-3.47,1.12,7.16,7.16,0,0,0-2.09,3.31,23.11,23.11,0,0,0-1,5.22Q325.17,813.42,325.17,817.78Z" transform="translate(-196.38 -778.03)"/><path class="cls-1" d="M368.34,814.45H349.43a12.83,12.83,0,0,0,1.33,5.81,8.89,8.89,0,0,0,8.16,5.07,11.58,11.58,0,0,0,3.17-.41,10.31,10.31,0,0,0,2.78-1.28,21.22,21.22,0,0,0,2.48-1.86q1.13-1,2.94-2.69a3.17,3.17,0,0,1,2.13-.64,3.5,3.5,0,0,1,2.41.81,2.91,2.91,0,0,1,.92,2.3,6.29,6.29,0,0,1-1,3.06,12.16,12.16,0,0,1-3.1,3.36,17.64,17.64,0,0,1-5.21,2.67,22.43,22.43,0,0,1-7.21,1.06q-9.32,0-14.49-5.31T339.55,812a24.05,24.05,0,0,1,1.28-8,17.54,17.54,0,0,1,3.72-6.29,16.13,16.13,0,0,1,6-4,21.62,21.62,0,0,1,7.93-1.4,18.82,18.82,0,0,1,9.72,2.39,15.73,15.73,0,0,1,6.08,6.18,16.25,16.25,0,0,1,2,7.72q0,3.65-2.09,4.73A13,13,0,0,1,368.34,814.45ZM349.43,809H367q-.35-5-2.67-7.42a8,8,0,0,0-6.11-2.46,7.74,7.74,0,0,0-5.93,2.5Q349.92,804.07,349.43,809Z" transform="translate(-196.38 -778.03)"/><path class="cls-1" d="M410.35,812.78v12.86a6.61,6.61,0,0,1-1.38,4.57,4.69,4.69,0,0,1-3.65,1.52,4.55,4.55,0,0,1-3.56-1.52,6.66,6.66,0,0,1-1.36-4.57V810.23a49.56,49.56,0,0,0-.25-5.67,6.15,6.15,0,0,0-1.35-3.31,4.31,4.31,0,0,0-3.47-1.29q-4.75,0-6.25,3.26t-1.51,9.35v13.07a6.68,6.68,0,0,1-1.36,4.55,4.57,4.57,0,0,1-3.6,1.54,4.64,4.64,0,0,1-3.6-1.54,6.56,6.56,0,0,1-1.4-4.55V798a6.06,6.06,0,0,1,1.26-4.14,4.21,4.21,0,0,1,3.31-1.42,4.5,4.5,0,0,1,3.31,1.33,5,5,0,0,1,1.33,3.67v.92a16.82,16.82,0,0,1,5.38-4.43,14.2,14.2,0,0,1,6.38-1.42,12.76,12.76,0,0,1,6.27,1.45,11.37,11.37,0,0,1,4.32,4.39,16.81,16.81,0,0,1,5.24-4.41,13.39,13.39,0,0,1,6.2-1.43,14.13,14.13,0,0,1,6.84,1.56,9.92,9.92,0,0,1,4.29,4.46q1.24,2.62,1.24,8.25v18.88a6.61,6.61,0,0,1-1.38,4.57,4.69,4.69,0,0,1-3.65,1.52,4.64,4.64,0,0,1-3.6-1.54,6.56,6.56,0,0,1-1.4-4.55V809.38a37.33,37.33,0,0,0-.27-5,5.73,5.73,0,0,0-1.43-3.15,4.57,4.57,0,0,0-3.54-1.28,6.49,6.49,0,0,0-3.63,1.13,7.7,7.7,0,0,0-2.67,3Q410.35,806.58,410.35,812.78Z" transform="translate(-196.38 -778.03)"/><path class="cls-1" d="M463.09,814.45H444.17a12.83,12.83,0,0,0,1.33,5.81,8.89,8.89,0,0,0,8.16,5.07,11.58,11.58,0,0,0,3.17-.41,10.31,10.31,0,0,0,2.78-1.28,21.22,21.22,0,0,0,2.48-1.86q1.13-1,2.94-2.69a3.17,3.17,0,0,1,2.13-.64,3.5,3.5,0,0,1,2.41.81,2.91,2.91,0,0,1,.92,2.3,6.29,6.29,0,0,1-1,3.06,12.16,12.16,0,0,1-3.1,3.36,17.64,17.64,0,0,1-5.21,2.67,22.43,22.43,0,0,1-7.21,1.06q-9.32,0-14.49-5.31T434.29,812a24.06,24.06,0,0,1,1.27-8,17.54,17.54,0,0,1,3.72-6.29,16.14,16.14,0,0,1,6-4,21.62,21.62,0,0,1,7.93-1.4,18.82,18.82,0,0,1,9.72,2.39,15.73,15.73,0,0,1,6.08,6.18,16.25,16.25,0,0,1,2,7.72q0,3.65-2.09,4.73A13,13,0,0,1,463.09,814.45ZM444.17,809h17.53q-.35-5-2.67-7.42a8,8,0,0,0-6.11-2.46,7.74,7.74,0,0,0-5.93,2.5Q444.67,804.07,444.17,809Z" transform="translate(-196.38 -778.03)"/><path class="cls-1" d="M491,814.45H472.11a12.83,12.83,0,0,0,1.33,5.81,8.89,8.89,0,0,0,8.16,5.07,11.58,11.58,0,0,0,3.17-.41,10.31,10.31,0,0,0,2.78-1.28,21.22,21.22,0,0,0,2.48-1.86q1.13-1,2.94-2.69a3.17,3.17,0,0,1,2.13-.64,3.5,3.5,0,0,1,2.41.81,2.91,2.91,0,0,1,.92,2.3,6.29,6.29,0,0,1-1,3.06,12.16,12.16,0,0,1-3.1,3.36,17.64,17.64,0,0,1-5.21,2.67,22.43,22.43,0,0,1-7.21,1.06q-9.32,0-14.49-5.31T462.23,812a24.06,24.06,0,0,1,1.27-8,17.54,17.54,0,0,1,3.72-6.29,16.14,16.14,0,0,1,6-4,21.62,21.62,0,0,1,7.93-1.4,18.82,18.82,0,0,1,9.72,2.39,15.73,15.73,0,0,1,6.08,6.18,16.25,16.25,0,0,1,2,7.72q0,3.65-2.09,4.73A13,13,0,0,1,491,814.45ZM472.11,809h17.53q-.35-5-2.67-7.42a8,8,0,0,0-6.11-2.46,7.74,7.74,0,0,0-5.93,2.5Q472.61,804.07,472.11,809Z" transform="translate(-196.38 -778.03)"/><polygon class="cls-2" points="118.27 21.69 117.22 30.06 116.57 30.6 90.25 52.53 88.98 53.59 87.08 51.04 79.07 40.25 73.29 32.15 73.81 31.63 78 27.97 90.03 44.7 114.82 24.5 118.27 21.69"/></svg>